<mxfile host="Electron" agent="Mozilla/5.0 (Windows NT 10.0; Win64; x64) AppleWebKit/537.36 (KHTML, like Gecko) draw.io/27.0.2 Chrome/134.0.6998.205 Electron/35.3.0 Safari/537.36" version="27.0.2" pages="4">
  <diagram id="WI9T0HZ2pTsCkuznbFz-" name="Networking - old">
    <mxGraphModel dx="2066" dy="1201" grid="1" gridSize="10" guides="1" tooltips="1" connect="1" arrows="1" fold="1" page="1" pageScale="1" pageWidth="1169" pageHeight="827" math="0" shadow="0">
      <root>
        <mxCell id="0" />
        <mxCell id="1" parent="0" />
        <mxCell id="M5uWZI6zwQD7h2AX2w_p-1" value="" style="image;aspect=fixed;html=1;points=[];align=center;fontSize=12;image=img/lib/azure2/app_services/App_Services.svg;" parent="1" vertex="1">
          <mxGeometry x="560" y="280" width="64" height="64" as="geometry" />
        </mxCell>
        <mxCell id="M5uWZI6zwQD7h2AX2w_p-2" value="" style="image;aspect=fixed;html=1;points=[];align=center;fontSize=12;image=img/lib/azure2/databases/SQL_Database.svg;" parent="1" vertex="1">
          <mxGeometry x="770.5" y="280" width="48" height="64" as="geometry" />
        </mxCell>
        <mxCell id="M5uWZI6zwQD7h2AX2w_p-3" value="" style="endArrow=classic;html=1;rounded=0;" parent="1" source="M5uWZI6zwQD7h2AX2w_p-1" target="M5uWZI6zwQD7h2AX2w_p-2" edge="1">
          <mxGeometry width="50" height="50" relative="1" as="geometry">
            <mxPoint x="670" y="360" as="sourcePoint" />
            <mxPoint x="720" y="310" as="targetPoint" />
          </mxGeometry>
        </mxCell>
        <mxCell id="8qcqhnhewDp04QM2tOOE-1" value="" style="shape=image;verticalLabelPosition=bottom;labelBackgroundColor=default;verticalAlign=top;aspect=fixed;imageAspect=0;image=data:image/png,iVBORw0KGgoAAAANSUhEUgAAAgAAAAIACAYAAAD0eNT6AAAAAXNSR0IArs4c6QAAIABJREFUeAHtnQfYdEV5v3+iIAoIiCCKGlERFXuJscSKsXeRiMYuFhQUUVJMIvaCBY2JvRsTNSoW8K9GxR67YkNEiRUbSlNANP/9ye7Hfvvt7rt75jnnzMy557rea8+7e86Ue555Zs6U55EIEIAABCAAAQhAAAIQgAAEIAABCEAAAhCAAAQgAAEIQAACEIAABCAAAQhAAAIQgAAEIAABCEAAAhCAAAQgAAEIQAACEIAABCAAAQhAAAIQgAAEIAABCEAAAhCAAAQgAAEIQAACEIAABCAAAQhAAAIQgAAEIAABCEAAAhCAAAQgAAEIQAACEIAABCAAAQhAAAIQgAAEIAABCEAAAhCAAAQgAAEIQAACEBg0gZ0k3UjS3SU9UtI/SXqOpJdKesX4z9f+zr/5Ht/rZ/wsAQIQgAAEIACBzAlcTtJ+ko6U9DFJP5f0f4l/P5P0UUnPl3QfSU6DAAEIQAACEIBAjwS2kXQnSS+R9O3Ejn6dgcK3JB0l6Q6SnAcCBCAAAQhAAAItE9hK0r6SXivp1A47/UUDhF9Jeo2k20q6UMtlJ3oIQAACEIDA4AhcStLhkr6bQae/aDBwoqQnjfYX7DK42qHAEIAABCAAgWAClx5v0Dsr445/dkBw5niJ4PLBLIgOAhCAAAQgUD2B3cY79c8pqOOfHQg4796fsGv1tUUBIQABCEAAAokEtpX0FEmnF9zxzw4ETpP095IumsiGxyEAAQhAAAJVEriFpG9W1PHPDgS8R8AbGAkQgAAEIAABCIzO7W8v6VUjQzx/rLjznwwGXEYbINqOmocABCAAAQgMmYAt7p0wgI5/MgCYfH5P0k2HXPGUHQIQgAAEhkvgQEklb/KbdOZNP38/Pto4XAmg5BCAAAQgMCgC3gznKf+mHWdtz71J0sUGJQEUFgIQgAAEBkfADnZsp7+2Tjy1PPY3sOPgpIECQwACEIDAIAhcZuRp78t0/gsHP8fjbGgQ7YBCQgACEBgUAXvRO4nOf2HnP5lB8FHBPQYlGRQWAhCAAASqJXBZSd/psfM/b+wt8B2SXj42Lfy3I3fBjxn/+fo54998jz0L+plJp9z1p09FeLaEAAEIQAACECiWgB3j2H1ul52orQi+XdIjJN2w4Qa7i4+fdRweFHRtmfAbIzPClyy21sk4BCAAAQgMmoDN+n6io87/1yOb+y+T9Fctmdz1yYXbS/pXSb/pqEzHtVSWQQslhYcABCAAgXYJXEjSf3TQUXq6/KCxNcF2S3RB7LZc+NiOljXeKsksCRCAAAQgAIEiCBzWcufvKfK7StqqRxpO++4d+C84tMcykjQEIAABCEBgZQI3GXm/O7elAYCn+g+XtM3KuWn/xotIOqTFpQFbDLSjJAIEIAABCEAgWwKXGm2++3FLnf8bRuv8u2Zbcmk3SW9uqexmarYECEAAAhCAQHYEvFZ9dAsd4G/HO/qzK/CCDD1Q0pktcDiG/QALiPM1BCAAAQj0SsDT4NHH/Xwm/1q9lqpZ4leTZMt+0TwObpYdnoIABCAAAQi0Q+C6ks4O7vA+1PHu/mgyPi3w38FMzNisCRCAAAQgAIHeCWzXwk749zc04NM7jJkM2H7Au4MHAbaquMNMOvwLAQhAAAIQ6JzAa4I7OO8jcMdZS/CJBVsmjFwOeHUtcCgHBCAAAQiUSWD/4I7NG90uXCaKpbn2UcFjg1mZPQECEIAABCDQOYHLSzo1sFPzhr+dOi9FdwleQpINGEXNBNgk8Z7dZZ+UIAABCEAAApLfaD8V2Jl5ILHXAMBeNXjQ9DlJWw+AG0WEAAQgAIFMCDwzsPP/w9jRTiZFaz0bd5DkMkfNBDyr9RyTAAQgAAEIQEDSLSWdF9iBPXuAVJ8TyM+DiX0HyJAiQwACEIBAhwSiTf16Cjsnu/5dofQSyqcDBwGnSLp0V5knHQhAAAIQGBaBaFO/Zwxk3X+RlFwp2IEQpoIXkeZ7CEAAAhBIIhBt6vf+Sbmp4+H9AmcBvKcAU8F1yAWlgAAEIJANAdvjt1OeqI1rr82mZP1n5HWBXG0q+Hr9F4kcQAACEIBADQRs6vdbgZ3UiZiy3Uws4LsZDv6BAAQgAIFcCESa+uUNdX6teobld4GDLEwFz+fMtxCAAAQgsCKB+wR2Sl4+ePyK6Q7xticEsz5giBApMwQgAAEIpBOINvVrW/g+SUCYT8Bs3hM4CMBU8HzOfAsBCEAAAksIRJv69Tn13Zekx0/nE9hV0k8CBwGYCkayIAABCEBgLQI2Lxu149+W6m63VurDvvlWwZYWbbaZAAEIQAACENiQQLSpX2zVb4h8ixtsHjlyAIap4C0Q8wUEIAABCEwTwNTvNI3+rjEV3B97UoYABCAwOAKY+s2ryjEVnFd9kBsIQAAC1RLA1G9+VRttKth1TIAABCAAAQhsIhBtiAZTv5vQJl+YZdR+AAwxJVcHEUAAAhCohwCmaPOuS+on7/ohdxCAAASKJYCp3/yrLnqGBlPB+dc5OYQABCDQKgFM/baKNzRyTAWH4iQyCEAAAsMlcIWR//hTA9eXMfXbrixFn9LAVHC79UXsEIAABLIk0MY5c0z9tl/VNhX848BBG6aC268zUoAABCCQFYFoU79YmuuueqMtNWIquLu6IyUIQAACvRKI7kAw9dt9dWIquHvmpAgBCECgaAKY+i26+jZlvo0lnEtvip0LCEAAAhCoikD0JrIzJO1VFaGyCoOp4LLqi9xCAAIQ6I3A4wM3j9ky3f17KwkJTwhgKnhCgk8IQAACEJhLINqQjI0HEfIggKngPOqBXEAAAhDIjgCmZLOrktAMUb+hOIkMAhCAQD0EMPVbT10uKgkzPIvI8D0EIACBgRKIXiP2PgJCngSi93gckGcxyRUEIAABCGxEINrU7zGSfJKAkCeB6FMemArOs57JFQQgAIGlBDgnvhRPtT9iKrjaqqVgEIAABFYjgKnf1TjVeBeWHmusVcoEAQhAYAUCdAArQKr8FkwFV17BFA8CEIDALIE2poC3mU2E/7MnwBJQ9lVEBiEAAQjEEYjeBIap37i66SOmPSV5I5+tNkb8sQm0j1okTQhAAAIrEOAY2AqQBnZL9DHQQwbGj+JCAAIQyJ4AhmCyr6LeMoip4N7QkzAEIACBdglgCrZdvqXHjnyUXoPkHwIQgMACArzhLQDD15sIMEO0CQUXEIAABOogwBpvHfXYRSnYI9IFZdKAAAQg0AEBTP12ALmiJDglUlFlUhQIQGC4BDjnPdy6Tyk5diJS6PEsBCAAgQwIYOo3g0ooNAtYiiy04sg2BCAAARQ4MpBKgAFkKkGehwAEINAxAaZwOwZeaXIsIVVasRQLAhCokwCbuOqs175KxSbSvsiTLgQgAIE1CXCMa01g3L4hAY6RboiIGyAAAQj0SwBDLv3yrzl1DEnVXLuUDQIQKJoAplyLrr7sM498ZV9FZBACEBgqAd7Qhlrz3ZWbGabuWJMSBCAAgZUIsEa7EiZuCiDAHpMAiEQBAQhAIIIAu7QjKBLHqgQ4ZbIqKe6DAAQg0CIBzmm3CJeoFxLAzsRCNPwAAQhAoBsCz5b0f0F/f5C0bzfZJpUKCGBpsoJKpAgQgECZBFDAZdZbTbnGVHBNtUlZIACBIgi0MQW7dRElJ5M5EWAJKqfaIC8QgED1BKI3Yf1G0p7VU6OAbRFgE2pbZIkXAhCAwAwBjmHNAOHf3glEH0O1jBMgAAEIQGCKAIZYpmBwmRWB1wRtRvWm1rMlXS+r0pEZCEAAAj0SwBRrj/BJekMCyOeGiLgBAhCAQDMCmPptxo2nuiMQPUNlmSdAAAIQGDSB6DXWQwZNk8K3SSB6j8r928wscUMAAhDImYB36HunfpTBn2Mk+SQBAQJtEIg+pXKGpL3ayChxQgACEMiZAOesc64d8raIwKUk/Thw0Po5SdssSozvIQABCNRIAFO/NdbqMMqEpcph1DOlhAAEWiAQrUCf2UIeiRICywhEmwq+3bLE+A0CEIBADQQw9VtDLVIGL2F9KnAp4BRJu4MVAhCAQK0EojdRYeq3Vkkpo1yXl3Rq4CDgWDaxllHx5BICEFifQPQxqgPWzwJPQCCUwH0CBwA+DYOp4NDqITIIQCAHAtGGVGyelQCBHAhgKjiHWiAPEIBAlgQwpZpltZCpIALIdxBIooEABOojgKnf+uqUEm1OwDNcvw1cDsBU8OZ8+Q8CECiQAKZ+C6w0styIgM1QR1m1dDyYCm5UDTwEAQjkQOBKmPrNoRrIQ0cEok+5YCq4o4ojGQhAIJYApn5jeRJbGQQwFVxGPZFLCECgRQKY+m0RLlFnTSDa0qXbEgECEIBAEQSiFSCmfouodjI5RQBTwVMwuIQABIZBAFO/w6hnSrmcAKaCl/PhVwhAoDIC0ZugMPVbmYAMrDiYCh5YhVNcCAyZwBOCj0Fh6nfI0lRH2TEVXEc9UgoIQGAJgetJOjtwAICp3/NhX1ySj1PeVNI9JD1EkgdaR0g6StIbJB0t6UOSviDpi5JOkvT9saOa0xLqxM/a2Y3jcpyO22k4LafptJ0H58V5ct6cR+d1T0kXWyIvQ/op2lTw9YcEj7JCAAJ5E7Ap1G8ndDSzxlMcl+OsPewg6ZqjTvUukg6S9DxJ/yHp42OePgc+y6a0/08fl8VleutoUPDccVld5n0kbV97JY9l+VuBdXnCQLgNQDQoIgTKJxBt6ve65SPZVAK/Bbs895X0j5LeMn6L/lVgh1DaoGA2v2bx+TGbp4xZXaeyGQTLQOQM2es2SRgXEIAABHoicL/gjszmVEsMF5Z0dUn7S/K57fdLOlnSH4P5zHaeNf//h/Hyw/sk+VidB1FXk2TWJYaDg2XBbY8AAQhAoBcC0aZ+3ztaT/ZJgtyDj3j5je6Rkl49fnuNdARTc6ceUTaz9ozBqyQdKMmzBa6T3INl2zIewcBxeI+G2yABAhCAQKcEtpb02UBl9mNJtiGQY7icJDs1OnK8Pn9WYLmjOoOhx3PmuG5cR9557zrLMUSbCnYbdFskQAACEOiMQM2mfi877vBfMfr8Bp192Btr14OUn0h623iWwBsOcwnRljIxFZxLzZIPCAyAwL6jDW1en41S6F7f7TNcQdIjxrvUPRMRVS7iyYvlj8YbDR8myUZ6+gw2bx0lH26LbpMECEAAAq0S8DS936yilNdnepjC9BHDO43PsEcez4piQjxx8rWMpWd3XjRayrrD6Aim7S10GaK9ZbpN7tZlAUgLAhAYHoF3Bnb+XZr6tWEanzD4cPBxrGUdDL9105FHcP7dyIDRByU9TtKfddSsLZNuAxH5dxxumwQIQAACrRC4f6CyssJq29Sv132fOj53z3G8uI4mqsPKOR7PDjxnNGC8ecsnU6JNBbfdplpRLEQKAQjkTeAyo7ejSOM1bZj63UrSX0r6F0le7825gyFv5dTPDyW9ZGQC+WYtDQZ8lDRKHn4pafe8VQm5gwAESiPwrkAl5XX3KFO/Plv9F5JeKMmKOkqREg8s58nADyS9QNKfBzZgt4XIvSjvCMwbUUEAAgMncJvAjtXmUCNM/V5jPEVrRzXzFDXfwaVtGfje2EKhLUCmhmhTwT5qSIAABCCQRMDT6vYAF6VMbQ61adhpfKb7k4H5iSoX8cTJSIksvWfg8ERjVt6kGlX2L0ty2yVAAAIQaEzgwYFKqYmpXx+Xuquk/2L3fljnENXJEM+WHbZnuGx86M4NfBZEmwr+m8atngchAIHBE7CJ0f8NGgCsa+rXplztZx7DPOd3Mj7F8FNJX5H00ZH9e+/JsBdG7334J0meWbHC92DJGyFvMDoWdu2xrXjbi/eRs52n/qYd6vh6+jff62f85zgcl+N03A8cp+U0nba90jkvzpPz5jxy4uL8OvOeFHPaYw1NEmkq2MtjJfhIWAMPt0IAAl0ReEBQ529LZd5HsFHwlKWNsrxb0nlBaZfwlnqupBMlfUzSm0ZGaZ43tllw79HZ9JuOrdaVZO99m9HgxNYVnXcfc/PU9vMlvVnScZK+K+n3A6pfl9Vn9P9qxWl5t5UoS5t4DNxI6/A7BCCwBQFPR/qNLqIDdYe2LPjt88mjN9iTgtKLyHMbcfho4kdGx7ReLumJo70Vd5F01R4sIS6ri65+84DGZfesglnY74JnEWqf8fHg57CRBcIdNwDtNhMhg1/aIB1+hgAEILAFgdsHKaATJF1si9jP/2Kv8Zn9M4LSilCYEXH4LPaHxm/yfgO7/siT4PYLGPD1lgR2GDOzURt3hGZpphF1k0sclnnbFrjylsX/0zduM247EfnFT8ACyHwNAQjMJxBx7t/TmLeYE72tq3mjVA3T/LbB7s2Nthrn9XFbH/TsCSGegL00esbAu+3fOPbUWPp+A7cRD3BcrtngthNRvrfPRsz/EIAABBYR2EXSOQFvH2+YSsDr+/eV5CnJiLeaPuKwvXivYT9D0h1Hb3CXnCofl/0QsKzasZO96318NDhwHfUhGxFp+rit90xMH99zG0qN2ycTvMxGgAAEILAhgccEKB1vbPMucq/1+s040tJZqkJc9fnTx29n9ifgadRtNyTHDX0T8K53n1rwxkPPMpW4dOB9As7/RSVdMej46yP7rhjShwAEyiDw6YABgG39P1bSyQFxrdphp97nDt+7tQ8a2R241sybWBk1Ry5nCfht2kcZLYte1nIdp8pJV8+77VgWI3wFfGoWDP9DAAIQmCVw6aB1R087dqUom6bj9VVbTHv26AjerQa6G3+2/mv/3zNStx7v2fApl4g19qbyt+pzEcsa3muwW+2VS/kgAIE0Ap6uX1UxlXifPRp6avjA0ZuVjQ0Rhk3AneJ+402Fkd4uc2wbdudNgAAEILCQwFsqHADYmqGt1tmd67QFvIUQ+GGQBCwbtnj4Ykn2+pdjJ56SJ5+cIEAAAhCYS8DrpT+vRPHZU5utz92YY3lz65ovlxOYuJk+srB9LMsGCKfQFpZXOr9CYMgE9i688/emqaMk2c4AZ/GHLMnxZbd9B58G+XbhbWSR4aF4YsQIAQgURWD/gpWb7eYTINAFAZ/VX/amnfNv3u9AgAAEILAFgSj7430owIdvURq+gEA7BB5R8ADAJ14IEIAABLYgYJOkfXTeEWna7gABAl0QsBvmCJntI47/1wUg0oAABMojUJLRnlnlaUuDBAh0QSDKSc+sDHfxvz1uEiAAAQhsRsBHoGy+twsl1EYaNuiy62Yl4h8IxBO4VCHGgxa1Mfv4mPY1EE+IGCEAgeIIXL7gzn+i7OZ5VCuuIshw1gTuVkE7sVdFAgQgAIFNBGwkZ9KR9vFpT2inJubhWZtKwwUE2iFgt88p7cMybllPiSP12Zu0g4ZYIQCBUgn47TlVsTR5/vixKVaf27ezliZxTJ75WKnwyXcxBD6RKKN2NuVg75J9DQTuPM4DHxCAAAT+ROC+iYpt0gmv+vk1SfeaMdjzxMQ8/FbSxalPCLREYDtJqY55njCVNw963QbcFlZtNxH3YQtgqhK4hAAEpId0pIS+KckOh+bZ5LfZ3lQFdw8qEwItEXBnnSqfN5yTNw8EPANnz5Sp8a/y/IPm5IGvIACBARN4TMvK50RJ99tgB7JdtZ6VmA+f0SZAoA0Cr0uUzTMkXWRJxrw7/wBJbiurdORN73FbJ0AAAhDYRKCtAcCZoxRsQ/2im1JafmFDJU0Vm5/72YLZheWp8isElhPwjNUvEmXz/cuT2PSrB8KHSDotMb1F7ejRm1LiAgIQgIDilwB8Lt/uR3dfk27qPgArPZ9oIEAgksAtAjpjd+rrBNscsHOr8wLSnh4MsASwTi1wLwQGQCDSEdDnJTU9anTNAGX33AHUF0XsloBdS093ok2ur9YwyzcYnRr4ZED6kzyzCbBhRfAYBGolEHEM8MeSDtxgnX8Vfj9MVHaYBV6FMvesQyDV/K9lOiV4o6A77ghz3XdKyQjPQgAC9RG4aWKn6+NR2wdhsWOfydtK08+9g/JCNBDwm3tTOZw898ogjG5jqUcR/yIoL0QDAQhUQiDCFLDXLCNCxGzE0yMyQhwQkPTMgAHAHYNIXjogL5gCDqoMooFALQQinAFFbb7bVpKPTE3enpp8esp1nq2BWuqLcnRDwMf2vLTVRAYnz3g3/6qnYDYq1V8m5gVnQBsR5ncIDJRA6vriwYHc3p6o6Kx8WesMrJCBRhUxG/XvgewOTWwXuAMOrAyigkBNBD6YqFzeHAjDBlEmb1BNP/8rMD9ENUwCqf4pLLs2sx0V3prYLj4QlRHigQAE6iKQ6unsRzO2/VPo2O566jLA7xvYIUjJM8/WRcDr7ecmdrg2hGVZjgg+CZC6HOH9DAQIQAACWxCIsAXgc/xRwVOnTd/+J88dFpUZ4hkcgcMD5M/GsKLC9QLyc++ozBAPBCBQF4G9AhTM3wci8Rr+pCNv+olNgMAKGVBUfttOPftvmb1DILN/CmgPVwrMD1FBAAIVEbDSsy39pp2tnzs+kIdtov88MT/O0+0C80RUwyDgjjulHfjZUzZw/rMuSQ9mU/L008AlunXzzv0QgEABBLyRL0XJ+FlPVUaFFwXk56NRmSGewRA4LkDujgykZTfCqe3yDYH5ISoIQKBCAn8ToGheHcjFVtjsWChV+UXZKAgsGlFlSsCW8lLlzc9fPbB8rw/Ik91xEyAAAQgsJOCdz6kd7m8lRVkFdEY/HqD83ruwxPwAgc0J2G1v6gAgctbJbTLV/O8fJO26eTH5DwIQgMCWBD4VoAB9pDAqPCAgPx7UXDsqQ8RTLYHrBgyAPXiIfNv2UkLqgOQT1dYYBYMABEIJPCpA4fj8s99cIoJNA6duTrQCtREVAgSWEfjPANn35r8o07+7SzorIE/20kmAAAQgsCGBS0o6O0DpRO4FOCIgP+dJ8lFHAgTmEbiyJMtI6tv2P86LvOF3rwvIj5cPdmqYPo9BAAIDJGAzuqmK0OuONwpi59mEiEEJswBBFVJhNBFv/+5so9babyzJbSi1Hb6twrqiSBCAQIsEfHY+VfH4edsFiJoOfW1AnrwXgBMBLQpOoVHby17q5lfL+6uCyu828/UAeXeebhOUJ6KBAAQGRODLQQooakOgzQxHKOnPS9pqQPVIUZcTsCx8MUDW/bYedfTvuQH5cef/heVF51cIQAAC8wlEeOSzErJivO38JNb+9p1BivHBa6fMA7USeFiQTEVNtd8yaC+C216kJ8Ja659yQQACcwhcRNLJQcrRXswibANcP2gWwPnZfk6Z+WpYBC4hySZy3Vmm/Hlm6joB6Lx/INXj36QcJ0m6cECeiAICEBgogQclKsaJMvLnMUG2yCMMtTg/zxhonVLsCwg8L0i+331BlI2v7Ivj6KD8WL49g0eAAAQg0JhA1ProZCBwcOOcXPDgnwfNAnjHto9+EYZJ4KpBJ0v89u+ZqdRwSGDn/7mgwXZqmXgeAhAonIDXJCcdeOqnj/JFOAt6e1CebPWQadLCBbRB9j2wjTAx7fYQcbT0WgHmfqfbpk81ECAAAQiEEIiwCzBRUHZrul1irvaW9PugQcChiXnh8fIIPDlIds4NMC7ltpDq6nfStvwZtRmxvFolxxCAQCsEbJL0l0FK00oqwkrgK4Ly41mJfVqhRqQ5ErhG4Nv2vwYU8DVBcux25TYaZYI7oGhEAQEI1EIg6ljg5G1l/0Qwl5F0epDy9JqpTz0Q6iawddCZf8vwaZI8ME4JbgOT9hDx+dcpmeFZCEAAAssIvCNQYf1G0p7LElvht6ipXCvfp6yQHreUTeCpgfJ7WCKKK0g6NTA/EScREovE4xCAQM0EdpP0k0Cl9enEN+9tRsedvhOUn3OCNijWXP8ll+2GkrxmH/Gm/W1Jlr2mwTMRnwnKi8vjNhnlg6BpmXgOAhAYAIF9g5yUTBTxMxOZ3TlQkZ4oacfE/PB4fgR2lmTDOBOZS/28Q2IRnxWYF1vadJskQAACEOiEgO37pyrRyfMRCizKRLDz9B7OUHciQ10lYgM77wqUV3sNTAmRpn4trx5MECAAAQh0RsBTmJ8NVKqppoIvK8l7CiaDitRP7y0g1EHg7wPlwmv2KRv/Ik39WsbdBt0WCRCAAAQ6JXCl4E431VTwowIVvWcl7tYpTRJrg8CdAh3ruMO146CmIdrU7xkBNgialoXnIAABCOh+gZ2uFWyKqWAr2OMC8+MjhnZBTCiTgJ3zuJNMnQ2aPP+RxKWhSFO/zpPbHgECEIBArwReF6hkbZTnugml8bHCKNsAVrLfl+TlBUJZBC4n6X8D5dLLS3+WgMAybdmeDCZSP1+bkBcehQAEIBBGINqUqY/17ZCQu4cGKlor6hOwrpZQG90/6nX2bwTLwAMTihHdPnxSJaV9JBSFRyEAAQhsSSDamUmqqeBIg0UeBHxFko+SEfIm4COcXwju/H2CICVEmvqNcqaVUh6ehQAEILAFgccHK94UU8F+C/xRcH4+IeniW5SaL3Ih4Ddte3dMnV6ffv4HknZJKGC0qV+3MQIEIACB7Ah4E57P0E8r0JTrVFPBtwj0GDgpx4ckbZsdeTJkq3w+RTKpp4hPe5u8eQLaaFO/xyZuQkwoCo9CAAIQ2JiA37wjTQXbXGqKk56/C+4U3LHY6BBnrzeWha7ucOcfaehnMnhIsQWBqd+uap90IACBrAhEmwpOsXS2laT3tzAIcJwsB/Qvdq4DvxlPOu2oz/cmvm1j6rd/2SAHEIBATwSeHaiUU00Fe8d09K5wdzQfx29AT9J1frI7SfK+jKhOfxKPHf047qYBU79NyfEcBCBQBYE2TAV7eaFpuFqw1cJJZ/FVSZdvmimea0zAZ/KPb6Hz/7WkqzbO1fke+WzWeiIfqZ+Y+k2oDB6FAAT6IxBtKjh1WtZeA88LVM4T5W6Ff4P+MA8u5RtJ+mkL9WjZuH0CTW+CtYxO5CL105tg3YYIEIAABIokEG0q2OYhHk6JAAAgAElEQVRUU8JBgQp6WsGfKek+KRnj2ZUI+FjdWS3VoX1JpARM/abQ41kIQKBzAt5BbTOlDxq7FX2jpI9J8jqo37Ls/czHoaY7uz6vU00FG/BzWyrPH0cbA5+XeGqhcwEoJEGfBHlhS/VmeU7ZaGqE0aZ+U9uY26zbrtuw2/JHR7MJbtsup60a2k8CJ1kKEX6yCYEoAjaW4mlOd1Sfl3Rui0o1VYktev5bklyOpsFTtW9psdx2GnOZppnjuS0I7BHs5GlWrt6UuOM/2tTvbP7a+v8cSZ8b2bV4zsiA0u1GA+OLbUGeLyAAgeIJeBf8AZKODnZI0pZiWiVem1dNCZ75aON44CTvP8edcEr1bHr2npJ+2eJgzYarUt+EI039TuSnj8/fjW1c/HXiAHtT5XEBAQj0R+CGkl4v6bctKtA+FNUkzRRTwa4Vv/H8d8ts/k3S9v2JQLEpe9D6ipbrJsKqozvLiTzW9Ol9Fh7YXK9YCSLjEBggAU9v32s0zW8LejUppHllSTUVbPFw5xxtP342rycn7i4fmhjfKdiV72x9+H/bD0hZRnKd2PW0ZXBe/DV990lJd09cJhmaDFNeCHRKwB3/3UYN9csDUEjTytUDndQp3Eu0ZFBmOp++fgNuhZe2Ce+beHMH8msDTqnudC1zQxhkT8uwvSz6KC0BAhDIiIBd8VqpTTfWIV2n7uB2Vfpt8MMdMPQb46EBg5aMxC85K96P8aQRl9M74O9p/wgTzpGmfktrqz5RcI3kWicCCEAgiYCnr48sdCd/pNKzqeDbJpE8/2F7+WtzY+B0mX2S4d4Dn1b1rNV9JZ3QQcdv9u8L8uRoWbPMTdfn0K59esgniVKXUQKaLVFAYHgEbizpxIEroWmla2t8KaaCJxLkqV1P1U/H3ea1p1XvMEl8QJ9e5/9Sh5y9GTZ1qcjVYxmLNPXbpmx1EbcHb7bMSIAABDogcOGR0vznzIzzdKFoVknDb3h+q0wNjuMZHXZOLpsHAn4bdv3WGlw2n9zosuM326cFyoVlbBVZHNI9ng14yoizPW8SIACBlgjsKOkYFNBSBZxqKni66g7sYaD1XUlPkHTJ6YwUfr3LeN+Dy9Zlx+iO6eGB7KJN/XbJoou07AfBG2oJEIBAMAF7KPO6cRcNueQ0IkwFT1fdrSX9ogfuNsripQi7li3xzcp5Njtb2XNZupYpG2Iyu6iQm6nfrnmump7dbl8lCjrxQAACkg36tGkNbdXGXcp9tn0euTnJ572/1kMnNuH9w9GxtReMZn/+PPPBgDt9702xzf4f9cjrKyMDWFcMVByWJcvUpD74XM7Cgy8MCAUKIFENl8AtRlPCp6F81la+qaaCZyXOJy7a9B+waqdyiqTXStovaNPjbDnX/X+38d4Fb7L7WQZy6hmHyMGfedRi6ndVGYu479eSbrquMHE/BCBwAYFbtej6NKKR5x6HzbRGB68p52Ja2d4Hvzk2mfvQkS/6G0i6aHSBp+LzMUmn4bRsptdp5yIDNl37kKm8Rl3Wauq3i3qzi+ybR1UE8UBgSAS85jgEM6NtKqIIU8HzZO6aozdwr3W2mfemcdsNrDtmO7l58cgl7MFj09BeD99nbIlw5xlLeLaK5+92H9/je22jwM86Dsfl/Sc5uYWe5nN8S4ZphmLqd5pl9LVnAq49rxHxHQQgMJ/Alcd+vKMb47L4fjU2lPLM0Xqn33puNpr6vPy4Y7Av9q6Cz1n/JLBzjTAVPK/sfhu2EaahG4RZJlNt/3beyKHTc1ua9Yg29WuZjrBTMU8W533nNutB3RXGbfl+kmy90McYTw1sX6vUscvuwRQBAhDYgIDfxrp6u/Sb4lNHSsGbDHM6fx5taS3CVPCiavMUZ9fH21ZRurXfYyNYHqS2FSJN/UZZqowqq9u6jfcc0eHJIs/S4BUzqgaJp0oCNkDzjpZH5z6S5U1kXsvNOTw7kEPbCti25Z+DSeZOlkR8tt+yEWHPf5H8Rw9And+cgwcD3sTpI7RtDhz/M8ggU84syRsEGhN4cosN0B3/UeN13sYZ7PBBT8F+NpBHlKngZQi8N2DITpna7Dwc98daWuufrtNoU7+W4QgTxNN5bOv6spJe2vJAwI6wCBCAwAyB60g6J7DDm1bGRwefi57Jemv/Xil4I2SUqeBlBfYszgNGO+V/0FJdTtfrUK5PlnRAB2+PrrtIU7/ehGoZLi04z7bq14Z8eZbBA2UCBCAwJmB3qDZeEt3gbJDjnoVT9ualSC6RpoKXob3YaED3d9hwSKo7d6CHB3nwW1ZXk9+iTf1adksO92nJANkXC5oVKbn+yHshBLwRL7KTc1z2e+5jXTUE71mI4uM3kC6tlHlK+fmSfCY6qgy1x3PGeHd/l7vmo039WmZrCF4W+GgLsmvnQQQIDJ6ATZZGG5bxWn+XR/farsRoU6zRpoJXKb87M/tPZyCweCDkjt+bKbvs+F13NcjXKjLY9B7vYXhZ8CDAhpt8zJgAgUETeHtgw7JluMMqpXmtYKcy0aaCV8Vub2meamaPwAUDgZ+O4HkWzF4D+wglzzB1ycvLMZGzT//eZeZJCwK5EfAZ8qgG5c7/UbkVMDg/jw/kZe5tmApetch+q7q/pE8HlylKnrqI51PjzX197pKPNvVrGa05PC5QXq2zblIzLMoGgWUEPhjYmDw6rz14l7ZPNER1Tp5y3isDaHuPp77t6CeqbLnGY4uT9iOQg3lYW8mLtIp3TAcnFTIQV/1joJwem0OByAMEuiZg4xtRSvrfus58j+l5fbgEU8FNEPlN+I5jQ03uKKPko+94XJZXS7p9Rru/zdpmoqPYdG3qt4l8RT7zqkB2tkRKgMCgCLwrqAF5GtXHCIcUhmCpzR2UO0wbZvlOkKxEdXarxHOCpJdk1ulPt5GaTf1Ol7Ota3ud/J8guXxnW5kkXgjkSMDTzhFOZHxOeqg7aUsyFRwhgzbO8ujRksVbJNkwziqdcJf3fF/Sm0dOrB5ZgOOXIQwgI2Ruozh8gun0AFm0LrzKRonxOwRqIeA3owjl/OBagDQoh9+QI00FlzaFu4ckG2p5hqR3SzpJkjdVRcjVsjisrO38yDNYTx+7DfZZ8VKCl5BsFnpZGdf5rSRTv23U0cODWFonEiBQPYEdg0bNNs4x9FCiqeA268wOcmxm9a6SvFv7hZLeJMmb0zxd6477F+ONb94AOenofO3NcP7N9/heP+NnXzCO6y6S9mnZCU+bbBw3pn7jCZtphP8LzyRYNxIgUDUBn9OfKN6mn/aDbt8BBGm/AJ7T9dCVqWDqrnsC0cdI7Z+AcL5lTeuk6XbU5BpHQUhT1QTsh9trpU0ax/QzfjMjXEAAQy4XsOBqPgGbf450d1uLqd/5tNb/9q0Beu17o2Ul60gCBKok4DXb6Y68ybXXefGmtbl42JTrtwLYTurjxNHU9w6bJ8F/BRNAPtqvvGsEbWy+V/tZJQUI9EMgYq3sPf1kPftUecPLvop6y6DNPk8Gd6mfXTuT6g1ag4QjXAhbRxIgUB2B6wcpodtURyauQKzxxrGsJSb2iHRXk/sG6TgbSSNAoCoCXrdPffs4fiCmRptWfK2mgpvyGPpzmPrtXgK+GqDn3tB9tkkRAu0RuIykcwIaxkPby2I1MUef8/7cAC0t1iAMdocd6WjJfhouXQOYlssQYRfgXEm2c0GAQBUEbDAl9e3/5yOHMdtWQaP9QtxSUsSxpEmd2WwsoSwC0aZ+Pb1N2JiATQRHOLU6YuOkuAMC+ROgQfRTR9GmgukA+qnHJqkyAGxCLe4ZXnjiWBJT4QQipsS8fOBlBMLqBNqYAt599eS5sycCLAH1BH4qWZY8p2BwOWwCbIrpr/73lGSHSZOp/NRP+y73RkNCngTYBJpPvbDpOZ+6ICc9EeBYTE/gp5KNPgbmo4aEPAlwDDSfeuHYcz51QU56IhBhGOO4nvJeU7KYCq6pNueX5VqSfhc422PjQYQ0Ap8IqI+j07LA0xDoh8BemMbsB/ycVDEFOwdKRV9Rv3lWZpTp873zLB65gsBiAi8NGP2ejHOMxYDX/CX6DRFnMGtWQIu3M8PTItyEqO3Yxw5+UvfevCQhDzwKgc4JXELSaQGCj3vM2KqLXiO+f2z2iK0Bgeg9HriDblAJSx6JcH9+hqSdlqTBTxDIikCE0J8uacesSlV+ZtglXn4dTpcAU7/TNPK8jnoZemKexSNXENicQNS011GbR8t/QQQ4Jx4Esudo2rDzgKnfdio1ajnUdU6AQNYE2PiSdfX8KXNYisu/jjbKIZYeNyKUz+9RG6LvnU+RyAkE5hPg6Mt8Lrl9G20r/na5FbDi/DCAK69yI45Ef7y8YpPjIRHA+EU5td3GFDKmgtuv/zaWcLZuP9uDTwGjaIMXgfoBYP6yrDqO3kSGqeB26z96E6fNRNtcNKEbAhFm0d/YTVZJBQLrEcABxnq8crk7+hgZpoLbq9noY5wHtJdVYp5D4GEBR6PPlbTHnLj5CgK9EsAFZq/4kxKPNiTjpSBCLIFoQ06Y+o2tn1Vii3KN/rRVEuMeCHRFYFtJPw8Y3dYg2J5StQvkl0n62NgS2KmS/hjAJ9WiGM+nW2WDYfsM3VbcZmxF76PjtuQ2dcWuFFqL6fCi1CJcou6HQMTU1jmSvIxQYrjcKNNPlfRtOvlks6d0sO13sCUzdhv7Z0lucyUGlkpLrDXyvJTA1wI6vhI3t1xd0tsknRdQ/pKVMnmn0+5aBtzm3PautlQz5fljxGZpbygkQKB3ArcN6vxu0HtJVs/AzqM3kFfT8fO2HyT7XXeeNaXngcArC7OVb10XUQe3WV1lcScE2iHwngBhLsnAxR1Ga/w/CihzhAIgjhhFCsfyOf5Q0u3bUXGtxBphMM26lwCB3ghEmbi8V28lWC9he0r7A51/yNsLnW75nW5udejNg96LU0KwWd9Ufi7v3iUUljzWScB+qlOF+PuS7EAo5+D8vS6grKmseD5d3mBYP0Mfay1Bp1j3pcqjdTABAp0TiHJzeWjnOV8vQVtf8xpjakPleRgiA93JwOslbbVeU+/8brv4TZWJMwrb/9A5ZBJsh0CU8O7YTvbCYn1+QCNNbeQ8n64oYTg8hkeGaYF2ItpJkjvwVNnM/SWqHXrE2hsBT6/ZSEeq4B7VWwlWS/i+AWVMZcTz6XIGw+EyfMBqTb23uyKWUU+WZOdeBAh0QiBiA4s303kTYa7hSpJOZwCQPMij8x1u55tD3bsNuy3nGoa2kTrXeiBfaxCIOMJy9Brp9XHr++j86fyRgSpk4AN9KJA10hzaUeo10HBrbgSijFjYgFCu4Z4o/ioUfw5voOQhjxmQu+eqbCQN0ZhaxtVB1pYRiDBjebwk767PNXyJAQADAGSgKhn4SuY6x/lLHSyWaE491z6AfM0hMARHFncJaIipDZnn05UhDGE4KwO24plriHCodq6kPXItIPkqn8AQXFm+nwFA8pvIrOLlfzrjHGQgZ9O5F5V0SoDuqcGlevk9ZYUl2FbSzwME1IOIXMMukjyKjlBWNtP5bkk+Smg/5tvkWmjyBYHMCLit7Clp/3EbcluKaJN2OX7JzMo6nZ0hvGBNl5frgghETFG5AXoZIdfwkCBF8x1JN821kOQLAoURuJmkE4Pa5oMzLnvUEqt1NQECoQS+FtAAc9+kEmHv3xscdw8lT2QQgIDblNtW6kzAazJHGbHJ2rqaAIEwAkM5pvLdRAVzFt65wmSOiCAwS8Ce79zGUgYB356NNLP/h3DMOjPkZGcjAkMwVHExSalrjUdsBJLfIQCBJAKp6+S2QJr7fpwIQ2s5b3hMEgAe7pZAlKlKmw/OOfjtIuXN4jyO4ORcveStEgKXk+ROPKWtXiVzFkMwtZ55FZC9CYGXJjY2N1T7vc7dP3fqMse3JsD4hAAEWiVwQqJOulWruUuP3LrSOjNlkONn7WiIAIHGBKLcVdp1cO7hTokNLnffBrnzJ38QWJXAexPb6u1XTajH+4bibr1HxCS9EYHDEhuaR6H2xrXjRgll8LtthaeMuG1AiAABCLRP4NjEtnrn9rOYnMIlJJ2WWE7rsxJevpJhEUE8gahpKC8hlBD+KrGx/U8JhSSPEKiAgNtaymA9Z0dk09UzlOXX6TJznQmB+yQ2MjdQ76r35roSwrUTy/vrEgpJHiFQAQG3tZQBwD6FMPBmxdQNj+aU+wbsQqpjWNn8eGIjs+B5ra6UsGtAeTEAVEptk89SCbiNpXT+fvZSBRU+db+Dy2tdToDAygSuH9DILHi3WTnFPG5MfbO4ZR7FIBcQqJaA21jKAKC0mbrU00kTVjeqViIoWDiBCHOUNtt5ofCctRth6trige1mj9ghMHgCj0wcAHy2QIJfSSyzBwG5m2EvsFrqzHKUQ4qHFojnDYkN7QUFlpksQ6AkAi9MbKNu46WFCEds9nK6R2kFJ7/dE0g1tenRpt0G231waeHvE5XL+0orMPmFQGEEfNx2Mq3d5NNtvLRwUUmnJJbbrJ5WWsHJb7cEogStVJv4qSY47UyIAAEItEfgpMSO8F7tZa3VmN15NxnwTD/jFzP7PCFAYC6BhwcIWclTTddMLL/9AZQ48zFXGPgSApkR8AuK29h0p7budSlHAGfR7ybp7MSym5WXEwgQmEvgqwECVuIa2wTGkBXMhAGfEMiVwNAH6N7It+6AZ/b+Ejdn5yqPVeVr3wDhsrCVftxkqFOMVQkzhamSwNCX6KKOZ5diCbFKIc61UBEGJ47LtXBr5GuIm4zWwMOtEOiNwD8kvqTUsEk3wkDbe3qrQRLOksBeQSYnS91gM10pQzxmNF1+riGQK4HUKfAajummzoJ4lrYkE+25ymJV+YpwOnGyJDsQKj0M0dBI6XVG/odBAENd5+vY1GVKDwJeMgyRoZQbEdhp5DLyjMSpNQvUoRslVMjvQzM1Wki1kE0ICFPd5wuBXfxa56b8nTkaBFwSmYJAhDB5AOGBRA0hwtkIToHykoRdJO0v6ZmS3iXpREmnjv9Ol/QbSTa3erQkLwHdU9KOeRVh8LmhXV4gApbNiJc2637CgAl4yv77iSNJj0K9hFBT4E2j/NrcWZJ9M3xQ0u8byLif+eTIquVjJG1XPo7iS8DM3OZV6Cn8lBkAP2vdX8Oy7eZk+G9lAhEbSuyv2psIawp2GJLSuHAK1J80uOO31bTTEutwuv49W/AcSfaTQeiHgNvUdJ2se12iE6BlpKM2brsPIAyUwCcSG5UboY8P1hZSnQJ5GpnQLQG/yRw+ns5ft3NY9X4vFXhGYKtui0Zq46WZVetp3n0lGyhbJAA+zjevrOt85z6AMEACNwgQHgtajUYlUp0C2ZYAoTsCVxzJYcRgdlXF+WlJe3dXPFIaGRjDPseWYmDdu6rMLrvPfQFhYATeFCA8X5N0oQq5pS6N4BSoO6G4R/B0/zJFOf2blwVu3V0xB5+S29Q0/3Wva53qtg5el8Xs/e4LCAMi4LXMcwIE56GVMhu6zfFSqvV+DTf4zSrApv97o6DtRhDaJYCPjsV87dynqfxOnivZgdtiMvyykMDTA4TGriVr9XyHwlkoOtn84E1h3oA6UWJ9fdqq2oOyoVJnRuzBL6V+7UHQbbrGYB1sXZzCx8+6TyAMgIAbwikBAnNE5axSrW3VYBY51yq+XYBb2FSFOf2836Bq3AuTS/2zJLe8JnzqZVoem1x7EHGx5cnwaw0EIqaMvHxQ+5EoNh3lKe3e8PerAIXXREkue8Z7Aq6aJ7Lic8Wm3OVVGLWk676BUDkBNo2sVsF2HLJM4W/0W43HjlYj195dW0v6QmK9bFRvKb9/iiOCrVQ+x3I3xprqKMly776BUDGBmwQpzxtVzGhSNJwCTUjk8/n4IPlN6eQ3evZR+eCqJic4Adq4Kq8f1DZuvHFS3FEqgVcFCMlQDEdgejQvKbc9/xyn/mcHBDYWhC+IWNnBNPdqPD8eoN9fsVpS3FUaAdszt+OTWYW17v+1nqedrU+cj8wS6ff/FwfI7rqy3vT+Z/WLqqrUaYerV2fqZknLu01oX3z1JLmzFAJ/HaBAh+Y8gjePPKR7+6DBa9MOfd3nPFOBEo2RHWbiVucY5dxtv9WT5M5SCLwuYAAwNPeROAXKQ7ptcGrdTrjv+9kLECM7OAFaj+OhAW3lNeslyd25E7C53h8nCob9T++Ue0GD88fu42CgDaPz7vqoDt07nQ+RZOMyXhbz2eerSTpI0lcD0zmuYVl5bHMCdqyVUvdDO42zoyTr6hRmP9y8CvivdALXThQIC9PLS4fQIP+cP24ALfiRS0mytb0UheZnz5b06A2O6dnLn+/5XUB6Ng50iWAWQ4wOexzr17p1dWp7sTl0QiUEHh4gEEM4+jdb3ambanAKNEt0/f/vGiC77vzXcdzje38bkO7d1y8uT8wQwAnQDJAV/vVRvtQBwENWSIdbCiHwkkSB+E4h5YzOJjbIo4muH9+zE2XXirDJerxnAlKV6JHrF5cnpgjgk2MKxpqXqQMnn7ohVELA65EpyuyllXBYtxgooHWJxd//wUTZ9Zq/p/bXDX4m1WrmO9dNlPs3I8AAfDMca/3zssR285G1UuPmrAn8IlEY7pl16drNXOpIeih2E9qqha8kyq43/DUNj01M+4tNE+a5PxFgCa65IKSy+2nzpHkyJwK2n566icoOWIYa2ITUb817R3LK7NU1ErLvZ1PS/mVC2jwqsQm3uRRcOVF27WrbdgUIhRPYI1EQfKTExwiHGnAK1G/Np27G2yEh+z4mmDIAsFU1QnMCHMNtzs5LWKltB5PWzfln8+T1EpXYUDcATioQQyQTEv182vV0Siec4uM8dQDADECazGCIK43fSYlt5zppyfN0DgRunigENsIy5IAp0n5r351oygDg6gnZT10C+ElC2jwqYYo7TQpSB1D2HksonMDNEhXoxwovf2r2cUaSSjDt+RMT5dcW/pqGxyWm/a2mCfPcnzwqpgz8/OzQp7DtuTWFIQOAChriTROFAJOmvIn02QyOTZRfm/dtegzw+MS0/6tPcIWnzcxbegV+MlF+/yI9C8TQNwFXYsoo0Mewhh5Sp9K8j4DQjMCLEuXXsm+jPusGzxyktBs/e8S6iXL/JgLsvdmEovHF1xNleIjWXxvDzvXBqyQKwSm5FqzDfLEbuUPYM0ntnyi/7oht239dU8A2H5w6ALjPTFn4d3UCOAFandWiO1Ptv+y5KGK+L4eAfamnKDLbEBi6UxPOI/cn77sF2LGw/PtI1CrOgPzmH9H52xnQzv1hKz5l7G+kVaE9t6baf7l4WhZ4OhcCZyYOAryRcMgh1aoWToHSpCd1CWZ6AGzzvrbw5x3+HhxvO772hr/UNf/pdD6QVuTBP40FzjQRuEWizseGRRr/rJ5OXQs6LKvSdJ8ZbJJ3z3w6xcckKrPpjrmr60dMF4DrtQjgg2MtXHNvPjyxzXjzLKESAm9JFIYPV8KhaTFQSE3JxTx3SUm2SNlV552azm+Y/k+qeAbcSfj+9PB/J7aXN6ZngRhyIZA6GrQ1tl1yKUxP+WBKsifw42TtWje1Y+7q+af2i6r41FlyS6vCS0lKtaA59FnftBrI7OnbByhPr5sOObApqd/av0whswCnStqxX1TFp86m27QqPDhA3++blgWezomANzuljgi9jwCnQM3fQn2UkJBG4IkBiq3tWQDnkZBGIPXYrR14DTXY6NU3E9uJj81yAqAyCUpdE7LivGdlTNYpDoZJ1qHVzr0XkfSFROXW5gDgow2tDrZDq9xY/yexjodseCt1+cTt40Plig45X0TgyYmNyoLhWQAr4SEGTJPmUev2c+4jSm125E3ituOaK+SBqPhceBNlkzqYPOO2OsSwdcDbvxk+aYjwai/zVQMMQ1g4nlA7qAXlwynQAjA9fH1XSb9P7CQmnUXEp43+3KUHDjUmSTtrXqvuuFPl2caD9mqeBZ7MmYBd+6YKiI0KXS3nQraYN9yTtgh3zagfFjSgTW0P50myuWJCDAFm2ppxtGGrswL0uz0IEiolYOMkqQrPz39Z0sUqZbSsWKkW6Ya8NrmMa9PfPAjocybAnf+Dm2ae5+YSYK/NXCxLv/SGPRvuidDtD12aEj8WTcDHk04PEhS7Om3iZrVkgKm7k+3ghBBLwMsBqWvGTRSnHa1wVCq2Lh0bToDWY3phSe8O0uluRzuslzx3l0bgOUHCYqX5bwMbBHA+OU9p98bALk8HfI4Nf60JAvY2VkfrF7BXBerzZ66eNHeWSuDSY89oTd565j3jt+KhnAxIPWKDU6D2Wo1l8NDAGa55sv5LSfYWOBR5b6+2FseMxc3FbKZ/8Y7/Nwd2/t7btet0AlzXS+DFgYJjRenzz3bbWnvARnn+Nexd5M8PthroqVGbIsa9b7v1j8+N1fhaxo8L1uFDNp60GvWK7rJzFa9hznvLafrdjwZwFAoFVU4jcGdtL4KfbnhawMehPi7pgVhF66zSr5mok7wp02205uA9Lz9J5DSr43/G4LZmkZlfttTdtrNCNPn/3yVddn6SVXzLFGV51eipzf1GG5z8luM15m+PB8Bnj49O/WB8suVYSU+XdCcUYi+VzBLbYuzWqdatEz0b+cnO/8Xcq/3FG0i8mSlSkCZx2XXr31Y6GmeTUrVNgoL1TIBNtltWgGc0rEvbcoftGbIh+3jZkviAvrlKy5um/LbsN6+aAseUaqpNypITAfugn7xENPmsbR3bx0xTHfss4+iNf3vnJADkpXsCnv5ZJiQRv31Yktf3agiPTORlY0IECEBgSwI4ATqfic22vy9Rz6yit72/hQABvaUDYbO9dI/QS/eVjqlSGgwE2iGQatCpdCdA1o3WkdaVq3TgKfe8qZ0qJNYSCWw7smr2yQ6EzgLrs9SHjDZb2YJViSHCWYltMRAgAIELCAy5XXkN3m/jp3Skg326xTqfAIFNBHYZ7yPv/D0AABEtSURBVI5OGVWu8+wXJd18U+plXeAUqKz6Irf5E7hVYufnNlliuNH4qOo6ujPl3hMx+FOimHSTZ5tU9ZGoFAFb51mftfbGn9KODeIUqBt5JJXhEEg9llza3hrrPE/DWweuozNT7j1Z0hWHI1KUtAmBK0j6TodCaYG2G8unFjQtleoUqLbdyk3kjGcgME0g9XTN66cjy/jaJny9BHpaxzr2e5L2zJgLWcuIgEen3+hYQD0Q8PSULV3lHjivnHsNkb/SCAzBvsbdxjou5S2+ybPHS/IeCwIEViZgt5B2+dtE4FKfyf3YIBbLVhYjboTASgROStQ191oplX5u6upY3zy9+15JO/VTbFItnYB3px4u6Q+JjXOeYG70nY/CHJXpscEIm+Xswi29dZD/KAK1+tjYfgTIS5s2Ob2Rvov+3XsL7PrdFl8JEEgiYItU3+9BiN0ofDTmYZkJcq0KK0lIeBgCDQlEDKhzcgLkTtc6y052ojv2VeLzev9tGtYFj0FgLoGLj0eU9ri1ihBG35PbscGapyznCgBfQqAlAqlLat47lEvo+ljftJ71W/8rRq6rPfNAgEArBG4s6fM9DQJyOjY4hE1LrQgQkUJghkANm2r7ONY33flbJ1s3EyDQOoGuLVdNC7qvczg2mHpsyUcJCRCAwPm2QGbb+Dr/93mstq9jfRM+pVtWRf4LJrDdKO99bXJxA+jT2yBOgQoWXLKeFYFSnQC17a1v0snP+8x5k3RWwkVm2iewV0feq+Y1BH/Xx7FBnAK1L1ekMAwCqaa1b9Expj6P9U303T4dl5nkILAhgSGNiIfsvGRDQeAGCKxIoKR21OexPnf83uy434pcuQ0CvRAY0ppY6ptL6e5LexEwEq2KQAlOgPre83TmqMZLMpVelYBSmGYELjM+ktKHESGPlrs4Nljq2mWzGuUpCMQTyH0vTd/H+t4myf5ZCBAoksANO3Z36c5/8udjg202IJwCFSmSZDojAqmnadpyApTDC8zNMqonsgKBxgT6nkJr69hg6vnl9zUmyoMQqINAqj2NvwvGMKQlzGB0RAeB5QRqOzaYasHMxxgJEBgygZwsag5pE/OQZY6y90yglmODETbMcQrUszCSfG8EcvGpwbG+3kSAhIdMoPQRdy4KbMgyRNnLJdD3AJpjfeXKDjmvhIA70b+VdMbU5r3JJr4uPu1t8KEJ3gY9jZ+SzwMqqUeKAYF1CVj2U9pO0yW0vr31WddZ5+XkwXDduuN+CIQSsDONN0ryzv0UpdD0WTvTuEmDEqVuYnplgzR5BAI1EHh1YltvsonWbRxnZjVID2WokkBpDdSOSJoOOvzc6ZJ2qrImKRQEFhPYOWDW78jF0W/xSw7e+pq8YGxREL6AQO0ESjo2+IDEAYAHAS+vvUIpHwRmCKS+/bvdrLJ8xrG+GfD8C4FSCOwoyW/Y9nyV8pbd9Fnb3r7rBrCuFpA3L3vYIhoBAkMg8JiANuM27d37y8Ldxvbzm7b/lOess6y7rMMIEIBAAgF3sh8IUhpNGvWxkpyHecGzFT8IyJsHAc9jY9A8xHxXCQEfeX1+0D6f/13CpG99YV21SF8syTY/QQACywj4bdxv5U068dRnlo3o/zUwTz+S9A8j98o2oczbwzJp4LcSCFiGbU//KZJ+HNhO/mVO4UuYMZyTbb6CAARWJZDjmt7NAxVb6kCF5/sZIMK9W+43nVIYfe8ZwlvfVGVwCYEuCOTgrMMd/yR8jUFALzMzdLzddrw58P7qpNGNZxc+3VPba9vZ2FQxuYQABOYRyOXY4IN6UkI5KGTyMLxOuM86/xtJHOubpw35DgIDJND3FKC9DT5NUqpjkz6VKmnTiZcgA25jh0o6racB9y8lHSLpwgPUsxQZAlkT6HsTUF9WDEtQ3OSRAUaEDPTVxpZtAs5aKZI5CAyNQN/eBiMUHXHQYSIDecjAhyXtMzQlSnkhUDqBPr0NorzzUN7UA/XQVAZ85Hi/0pUg+YfAkAn0fWywqfLhOTouZKAfGfCenqdKsuEiAgQgUAGBvo8Nosz7UeZwh/uqMsCxvgoUPUWAwDICtrDX17nhVRUR99FpIQPdysAXJU3b9VimQ/gNAhAomEDfxwZR7t0qd3jDe5EMcKyvYEVO1iGQQmC70cNe6zu7pzPFi5QS39NhIQPtyoCP9R2Fv40U9cmzEKiDAMcG21W2dGbwzUkGONZXh96mFBAIJcCxQTqqnDoq8hIrjxzrC1WXRAaB+ghwbDBW6dKJwbNvGeBYX316mhJBoFUCHBuk4+q74yL9NBnkWF+rKpLIIVA/gdyPDdZfA5QwZwJ/yHQDLcf6cpYa8gaBggjkfGywIIxktUICuQ0AONZXoZBRJAjkQCDHY4M5cCEPwyWQywCAY33DlUFKDoFOCeR0bLDTgpMYBGYI5DAA4FjfTKXwLwQg0D6BHI4Ntl9KUoDAYgJ9DgC+i7e+xRXDLxCAQPsE+j422H4JSQECiwn0MQDgWN/i+uAXCECgBwJ9HRvsoagkCYFNBLocAHCsbxN2LiAAgRwJdH1sMEcG5Gk4BLoaAHCsbzgyRUkzI3AFSQ+Q9C+SPiTpJEmnSjov0zPAGFBJM6ACP/ghA2XIwDljXXyCpGNHzo1eJGl/Sbtl1oeQncIIXErSkyR9gU5eKMMylCH1RD0hA+fLgJdLPiPpMSOvhzsX1veQ3R4JXE7SKyX9jo6fjh8ZQAaQgeJl4AxJR0ryPiUCBOYSuKikI+j4i2/svAHxFowMIAPzZMADgSdKusjcHoAvB0vgWqPztN9gpE/njwwgA8hA9TLgZd0rD7a3o+CbEbjfaK3f52rnjRj5Di7IADKADNQnA6dJuutmPQH/DI7AwZK6OsaDEqlPiVCn1CkyUK4M+BTXgYPr9Sjwnwh4LYjGCwNkABlABoYrAz4t8DD6xGERuL8kVzwNHwbIADKADAxbBn7PcsBwBgDe8Mea/7AbPAqf+kcGkIFpGThd0t7D6QaHWVIf9fsmb/7MfCADyAAygAzMyIBPB3BEsOKxgc/5T4/6uIYHMoAMIAPIwEQGDq24/xt00WzhD+t+NPRJQ+cTWUAGkIFZGfBSwO6D7ikrLfwrePtn9gMZQAaQAWRgAxl4fqV94GCLZcc+vP0z2p8d7fM/MoEMIAOzMmCTwTgQqmi4cNgGI75ZAeB/lAIygAwgA8OVgUdX1P8NviifDxwAfE3SIZL2kbTd4MkCAAIQgEB/BKyDrYutk48P1POf7q9IpBxJ4PJBRn/OluRR4VaRmSMuCEAAAhAIIXBhSQdJOidgIGBDcbuG5IpIeiVgq3+pU3nu/G/daylIHAIQgAAEViFwm6BBwH6rJMY9eRM4KmAA8Ki8i0juIAABCEBgisBjA/T+C6bi47JQAh9KFASv+TPtX2jlk20IQGCQBLwc8PVE3f++QZKrrNDfTRQCby4hQAACEIBAWQSekKj7TyiruOR2HoHTEoXgGvMi5TsIQAACEMiawDUTdf/Psy4dmVuJgF09pmwC3H6lVLgJAhCAAARyIrBDou735m9C4QRSBwAWIgIEIAABCJRFIHUA4OOEhMIJ/DpxFMgSQOECQPYhAIFBEkhdAvjVIKlVVmg2AVZWoRQHAhCAwAoEUjcBfnOFNLglcwIfSJwBsHlJHykhQAACEIBAGQSss7+RqPuPKaOo5HIZgRcmCoE3ENq8JAECEIAABMogcHCA3j+ijKKSy2UE7hMgCN4McttlifAbBCAAAQhkQWBfSecG6H3HQyicwG6S/hAgDB4E2LwkywGFCwTZhwAEqiRg3ew3/4jO33Hg7bUSMTkuYAAwsSVg85LeXOIdptgIqERAKAYEIFAkAetg6+JDA9b8Jzrenx8pkgaZnkvAznymK5dreCADyAAygAwskoH95/YkfFkkAY8Sf8MggEEQMoAMIAPIwAYy8FNJ2xTZ05HphQSeu0GlLxoJ8j1vCcgAMoAMDEcG2P2/sBst94edJNmyEw0ZBsgAMoAMIAPzZMBv/zuW282R82UEHscAgAEQMoAMIAPIwAIZOGBZB8JvZRPYStInF1T8vNEg3/GWgAwgA8jAMGTAO/8vVHYXR+43InB5SfbzTKOGATKADCADyIBl4MeS9tio8+D3OgjYqp8N+9D4YYAMIAPIwLBl4CxJ16+ja6MUqxK4b5CFQJTHsJUH9U/9IwPlyoAt/t1z1U6D++oicA9Jv2MmgJkQZAAZQAYGJwNnSLpjXV0apVmXwC0lnULjH1zj562t3Lc26o66S5WBn0i63rqdBffXSeCykj7MIIBBADKADCAD1cvA2yRdus6ujFI1JeDjHw9iNqD6xp/65sDzvH0iA2XKgHf6371pB8FzwyBgF5BPluQpIho6DJABZAAZKFsGrMsPw3vrMDrwqFJeRNK9GAQwCEIGkAFkoFgZuLekraM6BeIZHgFG/2WP/qk/6g8ZGK4MDK/HosShBFKVR2hmiAwCEIDAgAigfwdU2TkWFQHMsVbIEwQgMAQC6N8h1HLGZUQAM64csgYBCFRNAP1bdfXmXzgEMP86IocQgECdBNC/ddZrMaVCAIupKjIKAQhURgD9W1mFllYcBLC0GiO/EIBALQTQv7XUZKHlQAALrTiyDQEIFE8A/Vt8FZZdAASw7Poj9xCAQLkE0L/l1l0VOT8n0QrYDlVQoBAQgAAEuiVwiUTde3a32SW1Ggn8KlEIr1EjFMoEAQhAoGUC10rUvb9oOX9EPwAC300UwkMGwIgiQgACEIgmcGii7j0xOkPENzwCH0gUwuMlXXh42CgxBCAAgcYErDO/kah7j2mcOg9CYEzgqEQh9CaWg6AJAQhAAAIrEzg4QO++aOXUuBECCwjcL0AQvZHwtgvi52sIQAACELiAwL6Szg3Qu/e9IEquINCMwO6S/hggjB4EPJblgGaVwFMQgED1BDzt7z1TEZ2/dfZu1ROjgJ0Q+FzAAGBynvXrkry55ZqSOCLYSfWRCAQgkCkB60Dv9n9iwJr/RMf68zOZlpdsFUjgcYEDgGkh5VqCAQyQAWQgWgYeU2A/Q5YzJbCLpDMZBNBZIwPIADKQvQxYV1tnEyAQRsA7SqNHqcQHU2QAGUAGYmXgyDCtT0QQGBPYg1kABkAMApEBZCBrGThdkjduEyAQTuBwGn/WjZ83qdg3KXjCszQZ8GZCAgRaIbC1pC8xCGAQgAwgA8hAdjLwRUnW0QQItEbgKpJOo/Fn1/hLe1Mhv7xdIwNxMnCGpL1b0/pEDIEpAveUdB6DAAYByAAygAz0LgPWxXeb0s9cQqB1AgfS8Htv+LxBxb1BwRKWJcqALf49vHVtTwIQmEPgwZJ+z0CAgQAygAwgA53LgN/8HzlHL/MVBDojcI+RaV8fPSlx9EyeqTdkABkoUQa8D4tp/866ORJaRmAvTgcwAGIQiAwgA53IgHf7ezM2AQLZELjI2JMVswG8UZX4RkWekdvcZeCskbZ/qqRtstH6ZAQCMwQuI+mFWA3s5E0gd4VF/uhUkYF0GbBt/xdg4W+mp+HfrAnYGcVjJX1WkneqoghggAwgA8jAajJgnWmXvgdJumTWmp7MQWADArtJ2l+SHQodK+nbkn4l6RwGBgyMkAFkYMAyYB1oXWidaN1oHWldaZ1JgAAEIAABCEAAAhCAAAQgAAEIQAACEIAABCAAAQhAAAIQgAAEIAABCEAAAhCAAAQgAAEIQAACEIAABCAAAQhAAAIQgAAEIAABCEAAAhCAAAQgAAEIQAACEIAABCAAAQhAAAIQgAAEIAABCEAAAhCAAAQgAAEIQAACEIAABCAAAQhAAAIQgAAEIAABCEAAAhCAAAQgAAEIQAACEIAABCAAAQhAAAIQgAAEIAABCEAAAp0T+P/aeGPUk/sOmwAAAABJRU5ErkJggg==;" vertex="1" parent="1">
          <mxGeometry x="762.25" y="110" width="64.5" height="64.5" as="geometry" />
        </mxCell>
        <mxCell id="8qcqhnhewDp04QM2tOOE-2" value="" style="endArrow=classic;html=1;rounded=0;exitX=0.5;exitY=1;exitDx=0;exitDy=0;" edge="1" parent="1" source="8qcqhnhewDp04QM2tOOE-1" target="M5uWZI6zwQD7h2AX2w_p-2">
          <mxGeometry width="50" height="50" relative="1" as="geometry">
            <mxPoint x="634" y="322" as="sourcePoint" />
            <mxPoint x="781" y="322" as="targetPoint" />
          </mxGeometry>
        </mxCell>
        <mxCell id="8qcqhnhewDp04QM2tOOE-4" value="" style="shape=image;verticalLabelPosition=bottom;labelBackgroundColor=default;verticalAlign=top;aspect=fixed;imageAspect=0;image=data:image/png,iVBORw0KGgoAAAANSUhEUgAAAgAAAAIACAYAAAD0eNT6AAAAAXNSR0IArs4c6QAAIABJREFUeAHt3QmYJVdZMOBO2GQXUcAdUfEH0V8M+hiTTJ07M5mhu051MoRm/5HtR2MAARFERUcQQQRZ/UUUFdwAQTZZBVzBhUVEQDTBQBLCJD11qmfPJDNdP3cmnWUyS8/0XWp58zz9dOb2vVXnvPWd7/uq7jYz4z8CBAgQIECAAAECBAgQIECAAAECBAgQIECAAAECBAgQIECAAAECBAgQIECAAAECBAgQIECAAAECBAgQIECAAAECBAgQIECAAAECBAgQIECAAAECBAgQIECAAAECBAgQIECAAAECBAgQIECAAAECBAgQIECAAAECBAgQIECAAAECBAgQIECAAAECBAgQIECAAAECBAgQIECAAAECBAgQIECAAAECBAgQIECAAAECBAgQIECAAAECBAgQIECAAAECBAgQIECAAAECBAgQIECAAAECBAgQIECAAAECBAgQIECAAAECBAgQIECAAAECBAgQIECAAAECBAgQIECAAAECBAgQIECAAAECBAgQIECAAAECBAgQIECAAAECBAgQIECAAAECBAgQIECAAAECBAgQIECAAAECBAgQIECAAAECBAgQIECAAAECBAgQIECAAAECBAgQIECAAAECBAgQIECAAAECBAgQIECAAAECBAgQIECAAAECBAgQIECAAAECBAgQIECAAAECBAgQIECAAAECBAgQIECAAAECBAgQIECAAAECBAgQIECAAAECBAgQIECAAAECBAgQIECAAAECBAgQIECAAAECBAgQIECAAAECBAgQIECAAAECBAgQIECAAAECBAgQIECAAAECBAgQIECAAAECBAgQIECAAAECBAgQIECAAAECBAgQIECAAAECBAgQIECAAAECBAgQIECAAAECBAgQIECAAAECBAgQIECAAAECBAgQIECAAAECBAgQIECAAAECBAgQIECAAAECBAgQIECAAAECBAgQIECAAAECBAgQIECAAAECBAgQIECAAAECBAgQIECAAAECBAgQIECAAAECBAgQIECAAAECBAgQIECAAAECBAgQIECAAAECBAgQIECAAAECBAgQIECAAAECBAgQIECAAAECBAgQIECAAAECBAgQIECAAAECBAgQIECAAAECBAgQIECAAAECBAgQIECAAAECBAgQIECAAAECBAgQIECAAAECBAgQIECAAAECBAgQIECAAAECBAgQIECAAAECBAgQIECAAAECBAgQIECAAAECBAgQINA6gXpm5rQdmzd/w9KG/D7Dn+H/D29r3UQMmAABAgQIELilQB3Crbevjz+asvzCKuS/n0L8dAqxSiHWx/gZ/u3fDt03yy/cnhU/MtzGLbfsFgIECBAgQKBRAvXM1tNTiGeXWXxlFeK2YxT6YzUAR7s9pUF8Y8pioRlo1KE2GAIECBAgMDNzdVi4Uwr5c1IorhxB0T9aI1CnLH4lZfHntm3adEfmBAgQIECAwBQFFs+av3PK4nNTiItjK/y3fMrg6hTizw+bjilO3a4JECBAgEA/BcpBvjmFeNkEC/8RVwaKK6tBPt9PfbMmQIAAAQITFkgbN941ZcXvphCXp1f8b3whYTUo3jJ8J8GEGeyOAAECBAj0RyCF/AEpi19uQuG/+RjyS8sN592/P0fCTAkQIECAwIQEqiwfnOBtfEdcor/xLP3mxXpst1dViGFCHHZDgAABAgS6L5AGxaO+9mK//RMq5GtpJK5JWfHI7h8RMyRAgAABAmMWSIM8TyFe14Liv9I4HKgGxXljZrF5AgQIECDQXYGlMPegFOLuFhX/w01AFveUofix7h4ZMyNAgAABAmMSGH5Of5nFq1pX/K//3IDhJxFW4fx7j4nHZgkQIECAQPcErv9I379va/G/YdxZ/Gi9sHCr7h0hMyJAgAABAmMQKAfxmTcU0Vt+Et/Kc+2t+F2F/OljILJJAgQIECDQLYHFDXP3TSHu7UoD8LXvD9gznFO3jpLZECBAgACBEQukUHykM8X/hqsXxUdGzGRzBAgQIECgOwJliA/tXvE//MFD5aC4oDtHykwIECBAgMCIBOrZ2dulEC/uagOQQvyfS0P4uhFx2QwBAgQIEOiGQBXiL3W4+F//gsXiF7txtMyCAAECBAiMQGD7+vitKcRdnW8Ahh8QtO68bx8BmU0QIECAAIH2C6RBfGPni//KCwKz+Ib2HzEzIECAAAECaxQYfmRuCnG5Nw3A4bmevUY2DydAgAABAu0VqGdmTksh/nOPiv+h1wKUIX5i+GmH7T1yRk6AAAECBNYgUIX8J/pW/FfmWw3iY9dA56EECBAgQKCdAleHhTulLH5lpSD27ffwy4LK2dm7tPPoGTUBAgQIEDhFgZQVL+xb0b/lfPNfO0U+DyNAgAABAu0TWFpXfFcKcd8tC+LhT83r0e3X7Ajz39O+I2jEBAgQIEDgFATKrHhbj4r8cb+1sArxradA6CEECBAgQKBdAlWWDxT/m1/pKLP5c9t1FI2WAAECBAichEC9sHCrlMV/1wDcvAFIIX62DuHWJ0HprgQIECBAoD0CKcsvVPxvUfxXniL4qfYcSSMlQIAAAQKrFFg6O79bCnFRA3CMBiCL5c4NW+6+Sk53I0CAAAEC7RAoQ3yF4n+M4n/99wSUoXh5O46mURIgQIAAgVUIbF+X3y+F4loNwPEbgBTidSnkD1gFqbsQIECAAIHmC6RQvE/xP2HxP/RagCrEv27+ETVCAgQIECBwAoEUiqj4r6743+A0yPMTsPozAQIECBBorkC9sHDbFOIXbihs1z/X7d8nbAgurmdnb9fcI2tkBAgQIEDgOAJlKJ6l2J+w2K+8DfBmv8uQ/+xxaP2JAAECBAg0U2DXpi33SCEuaQBOrQFIIe68Oszdq5lH16gIECBAgMAxBKoQf0/xP+Xif/hqwCC+7hi8biZAgAABAs0TqNbNPzCFeEADsMYGIIsHl8Lcg5p3hI2IAAECBAgcRSBlxd8p/mss/je8YDL/x3pm5rSjMLuJAAECBAg0R6AM8eGK/6iK/+HtlIPiYc05wkZCgAABAgSOELj8zIXbp5BfqgEYbQOQQrzsyqK4wxHc/kmAAAECBJohUIX4K4r/yIv/4U8IzPLnNeMoGwUBAgQIELiJQBlmvy2FuFsDMJ4GIIW4N22M33ETcv9LgAABAgSmL5AG+Z8p/mMr/isfEvQn0z/SRkCAAAECBK4XKLN4ZgpxWQMw9gZgOWX5OQKPAAECBAhMXaCe2Xp6lcV/UfzHXvwPXwXI4ieH5lM/8AZAgAABAv0WKAf5ExT/CRX/6z8boArF4/oddWZPgAABAlMVWDxr/s4pFFdqACbdAMRt5ezsXaZ68O2cAAECBPorkLL4G4r/ZIv/Tbxf1N/IM3MCBAgQmJrA0ob8PinEa25SkFZeqe73DR/jO8bmIIv7d6yL3zu1ALBjAgQIEOinQAr5OxT/MRb41TURb+9n9Jk1AQIECExFYGl9sV7xn3rxP3SlpVxfbJpKENgpAQIECPRLoF5YuFUK8TMagGY0ACnLP1eHcOt+RaHZEiBAgMDEBaosf6ri35Dif+PTBBdNPBDskAABAgT6I7B0dn63FOJ2DUDjGoC0c8OWu/cnEs2UAAECBCYqkEJ8teLfuOJ/+F0Xg+JVEw0GOyNAgACBfgiUG867fwrFtRqAhjYAIV6X1s39QD+i0SwJECBAYGICKcT3K/6NLf6H3xEQ4ocmFhB2RIAAAQLdF6hCcb7i3+ziv3J8qkE+3/2INEMCBAgQGLtAvbBw2zLE/14pMH43vREoLqlnZ2839sCwAwIECBDotkAK+XMU/aYX/SPGl8Wf63ZUmh0BAgQIjFXgqg3z90whLmkAjiiwN77/vqnfe7Bz8ZzN3zzW4LBxAgQIEOiuQDmIf6D4t674H2pKqpD/fncj08wIECBAYGwCS+vjD6csHtQAtLMBGB677VnxI2MLEBsmQIAAge4J1DMzp6UQ/17xb2nxv/Epio8Nj2X3ItSMCBAgQGAsAmlQPErxb33xv/71CfkjxhIkNkqAAAEC3RK4/MyF26cQv6QB6EoDEC/ftmnTHbsVpWZDgAABAiMXKLP8VxX/zhT/lU8I3DryQLFBAgQIEOiOQLnuvG9PWdyjAehWA5BC3Futn/vO7kSqmRAgQIDASAVSlr9Z8e9c8V/5rII/H2mw2BgBAgQIdEOgXJ//eApxWQPQ2QagrtbPretGtJoFAQIECIxEoJ7ZenoZ8o8r/t0t/tcf208Nj/VIgsZGCBAgQKD9AmUW/6/i3/nif/0LAosntj9izYAAAQIE1iyweNb8nVOIX9UA9KQByOJVaePGu645cGyAAAECBNotUIXipYp/P4r/Dcd5EF/S7qg1egIECBBYk8DS+tnvTiFec0NhuPEjZFdeOe53F02yuH9xw9x91xQ8HkyAAAEC7RVIIb5b8e/Z2f9KQ5PFd7Y3co2cAAECBE5ZYHvINyr+PS3+1zcBZZh78CkHkAcSIECAQPsE6hBunUL8Dw1AvxuAFOLn6zPOuE37ItiICRAgQOCUBKqQP13x733xP/T6jmpQPO2UgsiDCBAgQKBdAjs2b/6GFOJ2DYAG4PoYSDtD8Y3timKjJUCAAIGTFkgh/o7ir/gfEQOvOelA8gACBAgQaI9AOSi+P4V43RHJ31v9Vl4Z39/fB9KG+R9sTyQbKQECBAiclEAV8g8q/s7+jxYDZRY/fFLB5M4ECBAg0A6BclBccLTE7zYNwUoMVFnc0o5oNkoCBAgQWJVAPTt7uxTixSuJ3m9F/6gxkMUvXhrC160qqNyJAAECBJovkAb5Lxw14ff3OW+vezj2sf/55ke0ERIgQIDACQWu2jB/z5TFHRoAZ/2rjIFdi+fOf8sJA8sdCBAgQKDZAimLb1hl4ndWfOyz4l7ZlCH/w2ZHtdERIECAwHEFlgb5GSmLBzUAzv5PMgaWt6+PP3rc4PJHAgQIEGimQD0zc1oK+T+eZOLv1Zkum+M2Rv80jKFmRrdRESBAgMAxBapBfKwCd5MCd+6WeumRT6x3POkpR/0Z/i2du0UDdPOnQR59zADzBwIECBBonsCVRXGHFOJlvW4ANp5f73ru8+pr3vH2+sAln6vrPYt1va88/s+exUP3vebtf1nv+vnn1Wnj+X1vCK7YtmnTHZsX4UZEgAABAkcVSCH/tb4W/yp/WL33db9XL2+79PjF/kTNwL6yXt72pXrva3+3ruYWetsIlIP4/KMGmRsJECBAoFkCaWP8jpTFPX1sAHY//0X1wa+uvfAfeaXg4JX/U+/e+sK+NgH7qnD+vZsV5UZDgAABArcQqEJ8a9+Kf7X5IfX+9757zWf8Rxb+I/+9/6/eXVeb+/c6gWpQvOUWgeYGAgQIEGiOQJXlg94V//jw+rpP/fPYi/9KM3DdJ/+5ruLDe3c1oBoUWXMi3UgIECBA4AaBemHhVinET/epARiejV/3iX+aWPG/oQn49L/W1YMv6FsT8G/DGLsh4PwPAQIECDRDIIX4U30q/sO57n//eyZe/FeagP3v+6u+NQB1Ocif3IxoNwoCBAgQOCRQhfO/PoV4dZ8agN0vfPHUiv9KE7D7BS/qWxNw9TDWLDsCBAgQaIhAGYqX96n4V/ER9fJVX5p6AzB8q2HfXg9QZfFlDQl7wyBAgEC/BbaH4n+lUFzbpwZg3x/+0dSL/8pVgH2v/4OeXQUorl0czH9fv1ed2RMgQKABAinE9/ap+A9f+Le8eHljGoDlxcvqalPf3hpY/FUDQt8QCBAg0F+BNMjzPhX/4Vx3/8qvNab4r1wF2P285/fsKkCsU1bM9nflmTkBAgSmKFCfccZtUohf6FsDsP9903vl/0rBP/L3/ve8q38NQIj/OYzBKS4BuyZAgEA/BcqQ/2zfiv9wvgevuKRxVwAOXn5xHxuAugr50/u5+syaAAECUxLYtWnLPVKIVd8agOEr7o88+27Kv4dfQtS34zGMwV3nzH7TlJaB3RIgQKB/AmkQX9fDYlPveOJFjW0Adjzhoj42AMM5/07/VqAZEyBAYAoCVZj7oRTigT42ADuf9qzGNgA7n/KsfjYAWTy4NMjPmMJSsEsCBAj0SyCF+Ld9LP7DOe/62ec2tgEYjq2vxyWF+A/1zMxp/VqJZkuAAIEJCpSD4mE9LjIagBAb22SUg+KCCS4FuyJAgEB/BC4/c+H2KeSXagDKRl4F6PkVgDpl8ctXFsUd+rMizZQAAQITEqgGxS/3ufgP5+4pgOZeATgcm8UvTmg52A0BAgT6IbB9ffzWFOJuDYDXADQ6BrK4J22M39GPVWmWBAgQmIBACvFPGp34J/TctCsATb8CEOs0iG+cwJKwCwIECHRfoMzimSnEZQ2ApwBaEgPDWD27+yvTDAkQIDBGgXpm6+lVFv+lJYl/7K9QdwWgBVcAQqzLED8xjN0xLg2bJkCAQLcFqiw+XvG/sehpAG60aHpcVIP42G6vTrMjQIDAmAQWz5q/cwrFlU1P9JMcnwagRQ1AiNvK2dm7jGl52CwBAgS6K5BC8eJJFtc27EsD0J4G4FA8ZcULu7tCzYwAAQJjEFjakN8nhbivDUV5kmPUALStAYj7d4T57xnDErFJAgQIdFMghfj2SRbWtuxLA9CyBiDEugrxrd1cpWZFgACBEQssrS/Wt6UgT3qcGoD2NQDDGCmz+XNHvExsjgABAt0SqBcWbpVC/MykC2tb9qcBaGcDkEL8bB3Crbu1Ws2GAAECIxRIIV7UlmI8jXFqAFrbANQpyy8c4VKxKQIECHRHYOns/G5fawAWp1FY27JPDUCbG4BY7tyw5e7dWbFmQoAAgREJpEHxqrYU4mmNUwPQ4gbg0CcEFi8f0XKxGQIECHRDYPu6/H4pFNdOq7C2Zb8agHY3ACnE61LIH9CNVWsWBAgQGIFACvH9bSnC0xynBqD1DcDwbYF/PYIlYxMECBBov0A1yOenWVTbtG8NQPsbgMPxVsT2r1wzIECAwBoE6oWF21ZZ/K82FeFpjlUD0JkG4JJ6dvZ2a1g6HkqAAIF2C6RBfPY0C2rb9q0B6EoDMPzK4Pxn2716jZ4AAQKnKLBr05Z7pBCX2laEpzleDUB3GoAU4s6rw9y9TnH5eBgBAgTaK1Bl8fXTLKZt3LcGoFMNQJ0G8XXtXcFGToAAgVMQqNbNPzBl8WAbi/A0x6wB6FgDkMWDS2HuQaewhDyEAAEC7RRIIf79NAtpW/etAehYAxBinbL40Xpm5rR2rmSjJkCAwEkIpKx4ZFsL8LTHrQHoYAMw/ITAQfGwk1hC7kqAAIH2CVx+5sLtU4hfmnYhbev+NQDdbABSiJddWRR3aN+KNmICBAisUqAMcWtbi28Txq0B6GwDUFeD4pdXuYzcjQABAu0SKMPst6UQdzehkLZ1DBqA7jYAKcS91fq572zXqjZaAgQIrEIghfimthbepoxbA9DpBmD4gsA/XcVSchcCBAi0R6Bcn/94CnG5KYW0rePQAHS8ARiukSw/pz0r20gJECBwHIF6ZuvpVYj/2tai26RxawA63wAMrwJ8crhmjrOk/IkAAQLtEChDfFKTimibx6IB6EEDEGJdZfHx7VjdRkmAAIFjCCyeNX/nFIor21x0mzR2DUBPGoAQt6WNG+96jGXlZgIECDRfIIX8N5tUQNs+Fg1APxqAw3FavLj5K9wICRAgcBSBpfWz351CvKbtRbdJ49cA9KgByOL+Hevi9x5labmJAAECzRZIIb6rScWzC2PRAPSoARh+T0CIb2/2Kjc6AgQIHCGwNIgbulBwmzYHDUDvGoC6HOSbj1he/kmAAIFmCtQh3DqF+B9NK55dGI8GoH8NQMryz9VnnHGbZq52oyJAgMBNBKoQf6YLxbaJc9AA9LABOPxUwEU3WWL+lwABAs0T2LF58zekELc3sXh2YUwagN42AGnnhi13b96KNyICBAhcL5Cy/Le7UGibOgcNQG8bgDoNildJNAQIEGikQLnhvPunEK9ravHswrg0AD1uAEI8kNbN/UAjF79BESDQb4GUxQ90ocg2eQ4agF43AHWZxQ/3O8uYPQECjROoBvlDmlw4uzI2DUC/G4BhHFeDfL5xCcCACBDop0C9sHDbMsT/7kqRbfI8NAAagBSKS+rZ2dv1M9uYNQECjRJIWXxuk4tml8amAdAAHIrnQXx2o5KAwRAg0D+BqzbM3zNlcUeXimyT56IB0ABcH587F8/Z/M39yzhmTIBAYwTKUPxRkwtm18amAdAArMR0lcXXNyYRGAgBAv0SWBrkZ6QsHlxJSH6PvzhpAMZv3Jo4zuLB7VnxI/3KOmZLgMDUBeqZmdNSiP/QmmR5+ONUh9+u1uofDUC7j98Y4u9jw7U49YRgAAQI9EcghfwxY0hmrS7Ok/DQAGgAbhFnWfHI/mQeMyVAYKoCVxbFHVIWv3yLRNTys+s2zEcDoAE4Spxevm3TpjtONSnYOQEC/RAoQ3zBUZKQs/cJNEAaAA3A0dZeGeLWfmQfsyRAYGoC5brzvj1lcc/RkpDbxl+cNADjN25pHO+t1s9959QSgx0TINB9gSrEv2hpguzEFQoNgAbgOOvvz7ufgcyQAIGpCKTB/FkpxOXjJKBOFNkmz08DoAE4XnxW6+fWTSU52CkBAt0VqGe2nl6G+InjJR9/G39x0gCM37jlcfypemHhVt3NRGZGgMDEBVIofrLlibETVyc0ABqAE63DMsQnTTxB2CEBAt0UKGdn75JC/OqJEo+/j784aQDGb9z2OC6zeFXauPGu3cxGZkWAwEQFqkH+W21Pil0ZvwZAA7CqWB7El0w0SdgZAQLdE9gR5r/na1/3u39VSWcC74Pv+zg0ABqAVa2BLO5f3DB33+5lJDMiQGBiAinE964q4Sj+E3mNgQZAA3AS6/FdE0sUdkSAQLcEymz+3JNINhMpgH0fjwZAA3Aya6AMcw/uVlYyGwIExi5Qn3HGbVKIXziZZOO+4y9OGoDxG3csjj8/XMtjTxh2QIBAdwTKQXxmxxJhJ65QaAA0ACe7LqtB8bTuZCYzIUBgrAK7zpn9phRidbKJxv3HX5w0AOM37mAcp52h+MaxJg0bJ0CgGwIpK363g0nQFYB9ZV2P8WfYnIibhjYoWf7b3chOZkGAwNgEqkH83ynEAxJ5MxO5KwDNPC4tWC8H0ob5Hxxb4rBhAgTaL5BC/JsWJLPenmlqADQAp74+i4+0P0OZAQECYxEos3zh1JOLxDwJOw2AOFtLnFVZ3DKW5GGjBAi0V+DSEL4uhfzStSQXjx1/cdIAjN+403GcxS8O13p7M5WREyAwcoEqxF/qdOLryCcVagA0AGtep1l87sgTiA0SINBOge3r47emEHetObF0pMg22UEDoAEYQXzuWjx3/lvama2MmgCBkQqkUPzxCJJKb1+YN0k7DYAGYBTxVobij0aaRGyMAIH2CZSh+LEU4vIokoptjL84aQDGb9yTOF7evj7+aPsylhETIDASgXpm5rQqi//Sk4TXiSsUGgANwAjX6z8Nc8BIkomNECDQLoEqFI8bYTLpRIFtuocGQAMw2hjNH9OurGW0BAisWeDqsHCnlMWvjDaZSM7j9tQAiLERx9gVw1yw5oRiAwQItEcgDeKvjziRuAIwgXdBaAA0AKNet2WIL2hP5jJSAgTWJLC0Ib9PCnHfqBOJ7Y2/OGkAxm/cwzjeV4Xz772mpOLBBAi0Q6AM8S97mOQ6cYVi59OeNdZv9FvLtwXufOqzOmHcx7VRDYq3tCN7GSUBAqcssLS+WN/HBNeVOe940lMa2wDseOJFGoAJPA00rliuQgynnFg8kACBZgvUCwu3Sln893ElENsd/+XpKj6isQ3AcGxiYPwxMEbjTw9zRLOzmNERIHBKAmlQ/PQYk4fkP6Gzv4NX/k/jmoCDX/mi4z+h4z/ONVwO8iefUnLxIAIEmiuwdHZ+txTi4jiTh21P5uxv/wff17gGYP/73qMB6EADkEK8ugrnf31zM5mRESBw0gJlFl+pQE+mQI/befcLfr1xDcDurS/UAHSjAairLL7spBOMBxAg0EyB7evy+6VQXDvuwmT7k2kwqgdfUC+XX2lME7BcXlEPx+T4T+b4j9+5uHZxMP99zcxmRkWAwEkJpFC8b/xJoyvJrx3z2Pcnf9KYBmDfG9+g+Hfk7H8lT1Qh/+BJJRl3JkCgeQIpi8XKova7HcV9NcepOu+R9fLi5VNvApYXL6ur8x6lAehYA3AoBrNitnkZzYgIEFiVQL2wcNsqi/+1moLiPu1rDva89OVTbwD2vORlin8Xi//hOV08zCGrSjbuRIBAswRSFn9OYW9fYV/1MRsU9bUf+eupNQHX/u2H6zQoNADdbQDqMiue0aysZjQECJxQYNemLfdIIS6tuph0OIl12aCaW6gPfPZTE28CDnz+03WVP0zx7/q6yeKOq8PcvU6YcNyBAIHmCFQh//0uFz5zu/HKxtL5j6oPfG5yTcCw4Ri+BsExuPEYdNsif21zMpuRECBwXIFq3fwDUxYPdjsp9SX5rm6ewysB1/7Nh8Z+JWD4lMNwX2JrdcelE05ZPLg0yM84btLxRwIEmiGQsuLvOpF4un55ddTzGxT18IWB43h3wHCbe37ztzznP+pj1p7t/UM9M3NaMzKcURAgcFSBFPJHKP49Ojs7SgEZXp4ffk7AKD4saLiNfX/8x97qdxTnvq2zMsSHHjXpuJEAgekLXH7mwu1TiF/qW2Iy36M3PNXsBfXwY4OH3x1w8KuXrvrpgeGXDe3/wHvr3c9/kU/4U/hv+nTPZVcWxR2mn+mMgACBWwiUIW5VDI9eDLnEuioeUe944kX1zqc/u971jOfc7Gd42/Bvw/uwEkPHioEqxF+6ReJxAwEC0xUow+y3pRB3H2vhul1SFwNiYM0xkMU9aWP8julmO3snQOBmAmmQ/9maF7fLnc5+xYAYOFEMDOIbb5abMZhWAAAS8klEQVR8/IMAgekJlFk8M4W4rAFwhicGxMAEYmCYa86eXsazZwIEDgnUM1tPr0L81wksemdGJzoz8ncx0pMYKEP8xDD3SMMECExRoAzFExV/Z31iQAxMOgaqkP/EFFOfXRPot8DiWfN3TqG4ctIL3/4UGzEgBqoQt5Wzs3fpdxY2ewJTEkiD+BKJWCIWA2JgajGQFS+cUvqzWwL9FVhaP/vdKcRrprbwe/JcJ1/FVQwcJwayuH/Huvi9/c3EZk5gCgIpi++UmI6TmDQoXpAnBiYSA2VWvG0KKdAuCfRTYGkQNyj+ir8YEANNiYFyfbGpn9nYrAlMUKAO4dYpxM80ZeEbhyIkBsRAyvLPDXPTBFOhXRHon0CV5U+VcCVcMSAGGhcDWX5h/zKyGROYkMDS2fndUojbG7fwPdc6kedaHXdFv9ExkMVy54Ytd59QOrQbAv0SSCG+ptEJQCOgERADvY6BMsRX9Csrmy2BCQiUG867fwrxOg2As0AxIAYaHAPXpZA/YAIp0S4I9EcgZfEDDV70vT7rcVwUZDFwYwyUIX6oP5nZTAmMWaDK4hYJ5sYEw4KFGGh6DBRxzGnR5gl0X6BeWLhtGeJ/S3hNT3jGJ0bFwI0xUFxSz87ervsZ2gwJjFHgax/3+/M3LioJhoUYEAPtiIEyFM8aY2q0aQLdFrhqw/w9UxZ3SHjtSHiOk+MkBm4WAzsXz9n8zd3O0mZHYEwCZcj/UEK5WULxYkNvsxMDLYqBKsTfG1N6tFkC3RVYWh9/OGXxoAZAAyAGxEBrYyCLB5fC3IO6m6nNjMCIBeqZmdNSiP/Q2kXfojMUxoqrGBhzDGTxo8OcNuI0aXMEuimQQny0pDTmpKRJcSldDEwsBsoQH97NbG1WBEYocPmZC7dPWfyyBkADIAbEQIdi4PJtmzbdcYSp0qYIdE+gHMTnd2jRT+wMg5liKQaaHQPVoPjl7mVsMyIwIoFy3XnfnrK4RyJrdiJr6/GpHnxBvfOiZ9Z7XvSSeu/vvq7e98Y3HPoZ/v/wtp0//Yy62vwQTZunBsYVA3ur9XPfOaJ0aTMEuiVQDYq3tLW4GHczm5aqeES957deUV/38Y/V9a6r6npfefyfXVfV1338o/Wel728Hj7WcW3mcW3tccnin3Yra5sNgREIpMH8WSnE5dYubGdNjSqWSxf8n/qaN7+5Xl7advyCf5yGYPjYa970pnrpIY9p1NyskVY3Jcspy88ZQcq0CQLdEKhntp5ehvzjElurE1sziuSgqPe+8jX1cvmVUy78R14lWC6vqPe84tV1GhTNmKNms+3H4VPDnNeN7G0WBNYoUA7yJyv+iv9aY6A675H1tR/7+5EV/iMbgWs/+nd1dd6j2l58jL8BDVSVxcevMW16OIH2C5Szs3dJIX51rcnf4/vdQCw94vH1wUs+P7biv9IMHLz0C/XSo5+oiDagiLZ5zVchbksbN961/RncDAisQaDK4svavJCNffqNx9LDH1cfvOKSsRf/G5qAKy6plx72OE2AJmCNMVC8eA2p00MJtFtgR5j/nq993e81iuj0i2hbj0GVP6w+cMnnJlb8V5qAA//92bqaW1hjAXDc2xp3Ixl3Fvcvbpi7b7uzuNETOEWBFIq/GslCcibS20K0/0MfmHjxX2kC9n/gvb11t25H1bzl7zjF9OlhBNorsD3kGyWRUSWRfm5n9y+/YGrFf6UJ2PULWzUBGvA1xUA5yDe3N5MbOYGTFKhDuHUK8bMagH4W7lEc92rzlok+779S8I/8ffCyi+tq05Y1FYBReNhGi9dSln+uPuOM25xkGnV3Au0UKLPiGRJWixNWA8749rz8lVM/+19pBva89OUagAbERMtzylPamc2NmsBJCOzYvPkbUhbLli9WCX+aCX9Q1Acv/c/GNAAHv/ifPiRomvHQjX2nnaH4xpNIpe5KoH0CKcTfUfyd/a8lBnY+9VmNKf4rVwF2XvgMTWE3CvE0j+Or25fRjZjAKgXKQfH9KcTr1pL8PVbzsO/P/qxxDcC+P37jNAuHfXej+TiQ1s39wCrTqbsRaJdAFfIPKuAK+Fpj4MBnP9W4BuDAf3xSEe5GEZ7qcSyz+OF2ZXWjJbAKgTLEh6418Xu85iFtOG91X+t7nG/5W7lsP9Lfu66qh2MTo2J0rTFQDYrzVpFS3YVAOwTq2dnbpRAvXuvC8HjJdfg5/CMt3CNsFJYe6TsCrNERrNEsfnGYM9uR3Y2SwAkEUih+UWIYQWJwibXeeeHTG9sA7Hzy01wBEKMjioH8OSdIq/5MoPkCV4e5e6Us7tAAaABGEQM7n/7s5jYAT3/2iJK/WBlFrLR8GzsXz9n8zc3P8EZI4DgCaRDf2PKFKKk36Kxu51Oa9xbAlackdl70TLHSoFhpe96psvj646RWfyLQbIEyFD+WQlxu+0I0/uacke54wkWNvQKw4/EXagA0AKOLgSwe3L4+/mizs7zRETiKQD0zc1oK8Z8Vz+YUzy4ci+HX/66ccTftt68HFutjWGMfG+bSo6RYNxForkA1iI8dw2IYXXftTKW1lgevuKRxTcDwS4HEuwZgLDEwKB7V3ExvZASOELg6LNwpZfErY1kMCnfvC83+D7y3cQ3A/ve+u/fHxXofWwN0xbZNm+54RJr1TwLNFEhZ8ULJYGzJoPeFZs+vv6RxDcDuF7yo98fFmh/fmi9D3NrMbG9UBG4isLSu+K4U4j7JYHzJoO+2w9cBLC9ta0wTMBzLcEx9Py7mP9Y1v7cK59/7JqnW/xJonkCZFW+TCMaaCBSaEOv973pnYxqAa975dsfEU3OTiIE3NS/jGxGB6wWqLB8o/or/JGJgx2OeVNd7FqffBOxZrIcfTzyJOduHtVUNikzBIdA4gXph4VYpxE9LUpLUpGLgmr94y9QbgGve9CbF39n/JGPg34a5tnEFwID6LZCy/MJJJX770WQMY6CKD6+n+ZbA4Vv/PPcvFiedj8oQn9TvamP2jRJYOju/WwpxcdILwf4k30MfDbz76slfCdh9db3zp58xyTM/+3Kl4VAMlFm8Km3ceNdGFQGD6a9AGeIrFGPFeFoxsOc3XjrZBmDv9nrPi16iICvIU4yB/Df7W3HMvDEC29fl90uhuHZayd9+NR7DGNj7ytfU9d7t428E9m6v977y1VNM/I63NR/rlMX9i4P572tMITCQfgqkEN9lQUrKTYiB4YfxLO8Y3+cDDN/vv/tXf13xd+bfiBgYvuW6n1XHrBshUK2bf6Bv+1P8m1D8V8aw4wk/XR/4r/8Y+ZWAA//577Vv+xPrK3HWkN/LacP8DzaiGBhE/wRSyN/RkIXQiI6cRUMKxMbz672//dp6efGyNTcCy4tfrve++rfrtPF8MebMv3kxkOVv7l/lMeOpC1Rh7oec/Tek4EnMR03Mw6/n3fua/3dKVwQOfOEzhwp/NffQo25bsyf2GxEDWTxYbjjv/lMvCAbQL4EU8tc2YgEofgrUKmJgx+N+qt7zilfV+9//nvrAZz9VL2/7Ur289NXDP9u+dOi2/e97T73n5a+sd/zETzJdhan134wmaPgurH5VH7OdqsDwk6gOvRdVklAoxIAYEANTjoHiynpm6+lTLQp23h+BMps/V/ffjO7fcXAcxIAYSFl+Tn8qkJlOVcDlfwlH0REDYqBBMTAoXjXVomDn/RFIIX7e4m/Q4ncJdsqXYMWCfDD1GPi3/lQgM52awNVh4U4pxAMW/NQXvKKn8REDYuD6GCiuvTSEr5taYbDjfgikEM9W/BV/MSAGxECzYmApzD2oH1XILKcm8LVv/bvIwm/Wwnc8HA8xIAZ8TfDUymJ/dpxC/muSjWQjBsSAGGhWDFRZ/rz+VCIznYpACvE1Fn6zFr7j4XiIATFQZfFlUykKdtofgZTFP5VsJBsxIAbEQLNioBzEP+hPJTLTqQj4+t9mLXpJ2PEQA2JgGANViG+dSlGw0/4IpBDfJOFIOGJADIiBhsVAFt/Qn0pkplMR8CmADVv03gftvfBiQAyEWPtSoKmUxH7tNIXixTp/TYAYEANioFkxUIa4tV/VyGwnLpCy+HMWfrMWvuPheIgBMVBl+VMnXhDssF8CKStmJRvJRgyIATHQrBioQgz9qkZmO3GBXefMfpOF36yF73g4HmKg9zGwXIXzv37iBcEO+yeQQrxcwul9wvHCKy++EwPNiYGL+1eJzHgqAsP3m2oANABiQAyIgYbEQBb/dCrFwE77J5BCfLSF35CF35wzEGeDjoUYmFIMlIPigv5VIjOeisDiWfN3TiHu1QRoAsSAGBADU4+BXZefuXD7qRQDO+2nQJkVb7Pwp77wnXFN6YxL7Iv9xsSAy//9LMLTnHU1yOcbswAUAY2AGBADPY2BcpBvnmYtsO8eCtQzM6eVIX5CE+BMSAyIATEwpRjI4ieHubiHJciUpy1QhvhQC39KC7+nZzviTbyJgZvEQBaLadcB+++pwLDzTCF+xoK8yYJUmF2KFgNiYDIx8Gln/z0tvk2ZdhrMn5WyeFAToAkQA2JADEwoBrJ4sFo/t64pdcA4eiyQQnyNhT+hhT+ZMwtncJzFQINjoMriy3pccky9SQJXFsUdvvbhQBdrAjQBYkAMiIGxx8AXvO+/SRXQWGbK9fmPpxD3WfxjX/zOzBp8Zib+xf+YY2Dv9qz4ESWHQOMEyixf8HoACXDMCVADpAHqZwwMn/cf5A9pXOI3IAIrAuUgPlMB0ASIATEgBkYbA9WgeNpKnvWbQGMFykF8vsU/2sXPk6cY6G8MVFn+vMYmfAMjcKRAOcifkEJxraTV36Tl2Dv2YmDNMXBdCsVPHplf/ZtA4wXKbP7clMUdksCak0A/n/P0XLfj3u8Y2JWyYrbxid4ACRxLYGlDfp8U4t9oAjQBYkAMiIHVxkD+j4sb5u57rLzqdgKtETj0xUGD/MkpxN0SwGoTgPuJFTHQwxjYm0L+nHpm6+mtSfAGSmA1AsOrAWUo/iiFeF0PF7bLuf2+nOv4O/7HiYHi2iqLr6/C+fdeTS51HwKtFRg2AlXIf9+LBJ3haQTFQM9j4JoU8tcq/K0tZwZ+qgJLZ+d3qwbxsSnEd7sqoBD0vBAc5+xQbHQqNg59eVr+j1WIP7PrnNlvOtX86XEEOiNwdZi7V8qKR1aheOmhFw1694CC4JKxGOhGDCylUHwkhfw3U8gfsWvTlnt0JnGbCIFxCQyvECytn/3upTD3oOFbCocfNeyHgRgQA82Ogflzlwb5GcOnOoc5bFz50XYJECBAgAABAgQIECBAgAABAgQIECBAgAABAgQIECBAgAABAgQIECBAgAABAgQIECBAgAABAgQIECBAgAABAgQIECBAgAABAgQIECBAgAABAgQIECBAgAABAgQIECBAgAABAgQIECBAgAABAgQIECBAgAABAgQIECBAgAABAgQIECBAgAABAgQIECBAgAABAgQIECBAgAABAgQIECBAgAABAgQIECBAgAABAgQIECBAgAABAgQIECBAgAABAgQIECBAgAABAgQIECBAgAABAgQIECBAgAABAgQIECBAgAABAgQIECBAgAABAgQIECBAgAABAgQIECBAgAABAgQIECBAgAABAgQIECBAgAABAgQIECBAgAABAgQIECBAgAABAgQIECBAgAABAgQIECBAgAABAgQIECBAgAABAgQIECBAgAABAgQIECBAgAABAgQIECBAgAABAgQIECBAgAABAgQIECBAgAABAgQIECBAgAABAgQIECBAgAABAgQIECBAgAABAgQIECBAgAABAgQIECBAgAABAgQIECBAgAABAgQIECBAgAABAgQIECBAgAABAgQIECBAgAABAgQIECBAgAABAgQIECBAgAABAgQIECBAgAABAgQIECBAgAABAgQIECBAgAABAgQIECBAgAABAgQIECBAgAABAgQIECBAgAABAgQIECBAgAABAgQIECBAgAABAgQIECBAgAABAgQIECBAgAABAgQIECBAgAABAgQIECBAgAABAgQIECBAgAABAgQIECBAgAABAgQIECBAgAABAgQIECBAgAABAgQIECBAgAABAgQIECBAgAABAgQIECBAgAABAgQIECBAgAABAgQIECBAgAABAgQIECBAgAABAgQIECBAgAABAgQIECBAgAABAgQIECBAgAABAgQIECBAgAABAgQIECBAgAABAgQIECBAgAABAgQIECBAgAABAgQIECBAgAABAgQIECBAgAABAgQIECBAgAABAgQIECBAgAABAgQIECBAgAABAgQIECBAgAABAgQIECBAgAABAgQIECBAgAABAgQIECBAgAABAgQIECBAgAABAgQIECBAgAABAgQIECBAgAABAgQIECBAgAABAgQIECBAgAABAgQIECBAgAABAgQIECBAgAABAgQIECBAgAABAgQIECBAgAABAgQIECBAgAABAgQIECBAgAABAgQIEJiAwP8H7Qcb0UTJdh4AAAAASUVORK5CYII=;" vertex="1" parent="1">
          <mxGeometry x="800" y="200" width="52" height="52" as="geometry" />
        </mxCell>
      </root>
    </mxGraphModel>
  </diagram>
  <diagram id="IOIY5rvUObep6FkZksNc" name="Networking - new">
    <mxGraphModel dx="2066" dy="1201" grid="1" gridSize="10" guides="1" tooltips="1" connect="1" arrows="1" fold="1" page="1" pageScale="1" pageWidth="850" pageHeight="1100" math="0" shadow="0">
      <root>
        <mxCell id="0" />
        <mxCell id="1" parent="0" />
        <mxCell id="vQeF79mmGKHCBSMDv0AG-14" value="" style="rounded=0;whiteSpace=wrap;html=1;fillColor=none;dashed=1;" parent="1" vertex="1">
          <mxGeometry x="150" y="350" width="640" height="640" as="geometry" />
        </mxCell>
        <mxCell id="vQeF79mmGKHCBSMDv0AG-20" value="" style="rounded=0;whiteSpace=wrap;html=1;fillColor=none;dashed=1;" parent="1" vertex="1">
          <mxGeometry x="310" y="610" width="450" height="280" as="geometry" />
        </mxCell>
        <mxCell id="vQeF79mmGKHCBSMDv0AG-21" value="Subnet delegation for app service plan" style="rounded=0;whiteSpace=wrap;html=1;fillColor=none;dashed=1;" parent="1" vertex="1">
          <mxGeometry x="360" y="690" width="130" height="160" as="geometry" />
        </mxCell>
        <mxCell id="vQeF79mmGKHCBSMDv0AG-22" value="" style="rounded=0;whiteSpace=wrap;html=1;fillColor=none;dashed=1;" parent="1" vertex="1">
          <mxGeometry x="539" y="687" width="181" height="160" as="geometry" />
        </mxCell>
        <mxCell id="vQeF79mmGKHCBSMDv0AG-1" value="App Service" style="image;aspect=fixed;html=1;points=[];align=center;fontSize=12;image=img/lib/azure2/app_services/App_Services.svg;labelBackgroundColor=none;" parent="1" vertex="1">
          <mxGeometry x="393" y="510" width="64" height="64" as="geometry" />
        </mxCell>
        <mxCell id="vQeF79mmGKHCBSMDv0AG-2" value="SQL Database" style="image;aspect=fixed;html=1;points=[];align=center;fontSize=12;image=img/lib/azure2/databases/SQL_Database.svg;labelBorderColor=none;labelBackgroundColor=none;" parent="1" vertex="1">
          <mxGeometry x="601" y="510" width="48" height="64" as="geometry" />
        </mxCell>
        <mxCell id="vQeF79mmGKHCBSMDv0AG-6" value="Virtual network" style="image;aspect=fixed;html=1;points=[];align=center;fontSize=12;image=img/lib/azure2/networking/Virtual_Networks.svg;labelBackgroundColor=none;" parent="1" vertex="1">
          <mxGeometry x="333.12" y="621" width="41.88" height="25" as="geometry" />
        </mxCell>
        <mxCell id="vQeF79mmGKHCBSMDv0AG-7" value="Private Endpoint" style="image;aspect=fixed;html=1;points=[];align=center;fontSize=12;image=img/lib/azure2/networking/Private_Endpoint.svg;labelBackgroundColor=none;" parent="1" vertex="1">
          <mxGeometry x="599.9100000000001" y="736" width="50.18" height="46" as="geometry" />
        </mxCell>
        <mxCell id="vQeF79mmGKHCBSMDv0AG-8" value="Private Link" style="image;aspect=fixed;html=1;points=[];align=center;fontSize=12;image=img/lib/azure2/networking/Private_Link.svg;" parent="1" vertex="1">
          <mxGeometry x="393" y="83" width="72" height="66" as="geometry" />
        </mxCell>
        <mxCell id="vQeF79mmGKHCBSMDv0AG-9" value="Private DNS Resolver" style="image;aspect=fixed;html=1;points=[];align=center;fontSize=12;image=img/lib/azure2/networking/DNS_Private_Resolver.svg;" parent="1" vertex="1">
          <mxGeometry x="990" y="157" width="68" height="60" as="geometry" />
        </mxCell>
        <mxCell id="vQeF79mmGKHCBSMDv0AG-10" value="Private DNS Zone" style="image;sketch=0;aspect=fixed;html=1;points=[];align=center;fontSize=12;image=img/lib/mscae/DNS_Private_Zones.svg;" parent="1" vertex="1">
          <mxGeometry x="243" y="90" width="67" height="67" as="geometry" />
        </mxCell>
        <mxCell id="vQeF79mmGKHCBSMDv0AG-11" value="Network Security Group" style="image;aspect=fixed;html=1;points=[];align=center;fontSize=12;image=img/lib/azure2/networking/Network_Security_Groups.svg;" parent="1" vertex="1">
          <mxGeometry x="405.71" y="200" width="46.58" height="56.57" as="geometry" />
        </mxCell>
        <mxCell id="vQeF79mmGKHCBSMDv0AG-12" value="DNS Zone" style="image;aspect=fixed;html=1;points=[];align=center;fontSize=12;image=img/lib/azure2/networking/DNS_Zones.svg;" parent="1" vertex="1">
          <mxGeometry x="243" y="200" width="64" height="64" as="geometry" />
        </mxCell>
        <mxCell id="vQeF79mmGKHCBSMDv0AG-27" value="" style="shape=image;verticalLabelPosition=bottom;labelBackgroundColor=default;verticalAlign=top;aspect=fixed;imageAspect=0;image=https://upload.wikimedia.org/wikipedia/commons/thumb/f/fa/Microsoft_Azure.svg/1200px-Microsoft_Azure.svg.png;" parent="1" vertex="1">
          <mxGeometry x="162" y="363" width="50" height="50" as="geometry" />
        </mxCell>
        <mxCell id="vQeF79mmGKHCBSMDv0AG-30" style="edgeStyle=orthogonalEdgeStyle;rounded=0;orthogonalLoop=1;jettySize=auto;html=1;fillColor=#d5e8d4;strokeColor=#82b366;" parent="1" edge="1">
          <mxGeometry relative="1" as="geometry">
            <mxPoint x="625" y="719" as="sourcePoint" />
            <mxPoint x="625" y="574" as="targetPoint" />
          </mxGeometry>
        </mxCell>
        <mxCell id="vQeF79mmGKHCBSMDv0AG-32" value="" style="image;aspect=fixed;html=1;points=[];align=center;fontSize=12;image=img/lib/azure2/networking/Network_Interfaces.svg;" parent="1" vertex="1">
          <mxGeometry x="643" y="730" width="22.67" height="20" as="geometry" />
        </mxCell>
        <mxCell id="vQeF79mmGKHCBSMDv0AG-35" style="edgeStyle=orthogonalEdgeStyle;rounded=0;orthogonalLoop=1;jettySize=auto;html=1;fillColor=#d5e8d4;strokeColor=#82b366;" parent="1" source="vQeF79mmGKHCBSMDv0AG-1" target="vQeF79mmGKHCBSMDv0AG-7" edge="1">
          <mxGeometry relative="1" as="geometry">
            <mxPoint x="424" y="782" as="sourcePoint" />
            <mxPoint x="424" y="637" as="targetPoint" />
            <Array as="points">
              <mxPoint x="425" y="750" />
            </Array>
          </mxGeometry>
        </mxCell>
        <mxCell id="vQeF79mmGKHCBSMDv0AG-38" value="" style="image;aspect=fixed;html=1;points=[];align=center;fontSize=12;image=img/lib/azure2/networking/Network_Security_Groups.svg;" parent="1" vertex="1">
          <mxGeometry x="471.18" y="828" width="14.82" height="18" as="geometry" />
        </mxCell>
        <mxCell id="vQeF79mmGKHCBSMDv0AG-39" value="" style="image;aspect=fixed;html=1;points=[];align=center;fontSize=12;image=img/lib/azure2/networking/Network_Security_Groups.svg;" parent="1" vertex="1">
          <mxGeometry x="701" y="825" width="14.82" height="18" as="geometry" />
        </mxCell>
        <mxCell id="vQeF79mmGKHCBSMDv0AG-41" value="Firewall" style="image;aspect=fixed;html=1;points=[];align=center;fontSize=12;image=img/lib/azure2/networking/Firewalls.svg;" parent="1" vertex="1">
          <mxGeometry x="534.54" y="200" width="67.46" height="57" as="geometry" />
        </mxCell>
        <mxCell id="vQeF79mmGKHCBSMDv0AG-42" value="Network Interface" style="image;aspect=fixed;html=1;points=[];align=center;fontSize=12;image=img/lib/azure2/networking/Network_Interfaces.svg;" parent="1" vertex="1">
          <mxGeometry x="665.67" y="200.6" width="63.93" height="56.4" as="geometry" />
        </mxCell>
        <mxCell id="vQeF79mmGKHCBSMDv0AG-43" value="Ip adres" style="image;aspect=fixed;html=1;points=[];align=center;fontSize=12;image=img/lib/azure2/networking/Public_IP_Addresses.svg;" parent="1" vertex="1">
          <mxGeometry x="664.14" y="95.4" width="67" height="53.6" as="geometry" />
        </mxCell>
        <mxCell id="EMGr5BW-FFJclUvyEyOc-2" value="Private endpoint" style="image;aspect=fixed;html=1;points=[];align=center;fontSize=12;image=img/lib/azure2/networking/Private_Endpoint.svg;" parent="1" vertex="1">
          <mxGeometry x="536.55" y="86" width="65.45" height="60" as="geometry" />
        </mxCell>
        <mxCell id="EMGr5BW-FFJclUvyEyOc-3" value="" style="image;aspect=fixed;html=1;points=[];align=center;fontSize=12;image=img/lib/azure2/networking/Private_Link.svg;" parent="1" vertex="1">
          <mxGeometry x="637.97" y="550" width="32.73" height="30" as="geometry" />
        </mxCell>
        <mxCell id="r--j5J2duxH1Iy3odee2-1" value="Azure DNS" style="image;aspect=fixed;html=1;points=[];align=center;fontSize=12;image=img/lib/azure2/networking/DNS_Zones.svg;labelBackgroundColor=none;" vertex="1" parent="1">
          <mxGeometry x="393" y="363" width="64" height="64" as="geometry" />
        </mxCell>
        <mxCell id="r--j5J2duxH1Iy3odee2-2" style="rounded=0;orthogonalLoop=1;jettySize=auto;html=1;" edge="1" parent="1" target="r--j5J2duxH1Iy3odee2-1">
          <mxGeometry relative="1" as="geometry">
            <mxPoint x="425" y="510" as="sourcePoint" />
            <mxPoint x="614" y="746" as="targetPoint" />
          </mxGeometry>
        </mxCell>
        <mxCell id="r--j5J2duxH1Iy3odee2-3" value="1. Vraag DNS op" style="edgeLabel;html=1;align=center;verticalAlign=middle;resizable=0;points=[];labelBackgroundColor=none;" vertex="1" connectable="0" parent="r--j5J2duxH1Iy3odee2-2">
          <mxGeometry x="0.1305" y="-3" relative="1" as="geometry">
            <mxPoint x="-3" y="7" as="offset" />
          </mxGeometry>
        </mxCell>
        <mxCell id="D9RFDPfHzCZVvTMBwzAO-8" style="edgeStyle=orthogonalEdgeStyle;rounded=0;orthogonalLoop=1;jettySize=auto;html=1;" edge="1" parent="1" source="D9RFDPfHzCZVvTMBwzAO-7" target="vQeF79mmGKHCBSMDv0AG-21">
          <mxGeometry relative="1" as="geometry" />
        </mxCell>
        <mxCell id="D9RFDPfHzCZVvTMBwzAO-7" value="privatelink.MyDatabase.database.windows.net" style="image;sketch=0;aspect=fixed;html=1;points=[];align=left;fontSize=12;image=img/lib/mscae/DNS_Private_Zones.svg;labelPosition=right;verticalLabelPosition=middle;verticalAlign=middle;" vertex="1" parent="1">
          <mxGeometry x="400" y="920" width="51" height="51" as="geometry" />
        </mxCell>
      </root>
    </mxGraphModel>
  </diagram>
  <diagram id="VrM_PqvbvBBqIPA7XLgu" name="DNS Resolven">
    <mxGraphModel dx="2916" dy="1201" grid="1" gridSize="10" guides="1" tooltips="1" connect="1" arrows="1" fold="1" page="1" pageScale="1" pageWidth="850" pageHeight="1100" math="0" shadow="0">
      <root>
        <mxCell id="0" />
        <mxCell id="1" parent="0" />
        <mxCell id="XUS2xCRJ0AsaMGDfNzcL-1" value="" style="rounded=0;whiteSpace=wrap;html=1;fillColor=none;dashed=1;" parent="1" vertex="1">
          <mxGeometry x="-90" y="140" width="730" height="600" as="geometry" />
        </mxCell>
        <mxCell id="6iS-v4jJ8hO-oO8h0QIF-1" value="App Service" style="image;aspect=fixed;html=1;points=[];align=center;fontSize=12;image=img/lib/azure2/app_services/App_Services.svg;" parent="1" vertex="1">
          <mxGeometry x="200" y="390" width="64" height="64" as="geometry" />
        </mxCell>
        <mxCell id="6iS-v4jJ8hO-oO8h0QIF-2" value="MyDatabase" style="image;aspect=fixed;html=1;points=[];align=center;fontSize=12;image=img/lib/azure2/databases/SQL_Database.svg;" parent="1" vertex="1">
          <mxGeometry x="408" y="390" width="48" height="64" as="geometry" />
        </mxCell>
        <mxCell id="6iS-v4jJ8hO-oO8h0QIF-3" value="" style="endArrow=classic;html=1;rounded=0;fontColor=none;noLabel=1;strokeColor=#B20000;fillColor=#e51400;" parent="1" source="6iS-v4jJ8hO-oO8h0QIF-1" target="6iS-v4jJ8hO-oO8h0QIF-2" edge="1">
          <mxGeometry width="50" height="50" relative="1" as="geometry">
            <mxPoint x="307" y="670" as="sourcePoint" />
            <mxPoint x="357" y="620" as="targetPoint" />
          </mxGeometry>
        </mxCell>
        <mxCell id="6iS-v4jJ8hO-oO8h0QIF-4" value="Private Endpoint&lt;div&gt;(met network interface en&lt;/div&gt;&lt;div&gt;private ip address)&lt;/div&gt;" style="image;aspect=fixed;html=1;points=[];align=center;fontSize=12;image=img/lib/azure2/networking/Private_Endpoint.svg;" parent="1" vertex="1">
          <mxGeometry x="406.9100000000001" y="616" width="50.18" height="46" as="geometry" />
        </mxCell>
        <mxCell id="6iS-v4jJ8hO-oO8h0QIF-5" style="edgeStyle=orthogonalEdgeStyle;rounded=0;orthogonalLoop=1;jettySize=auto;html=1;fillColor=#d5e8d4;strokeColor=#82b366;" parent="1" edge="1">
          <mxGeometry relative="1" as="geometry">
            <mxPoint x="432" y="599" as="sourcePoint" />
            <mxPoint x="432" y="454" as="targetPoint" />
          </mxGeometry>
        </mxCell>
        <mxCell id="6iS-v4jJ8hO-oO8h0QIF-6" style="rounded=0;orthogonalLoop=1;jettySize=auto;html=1;" parent="1" source="6iS-v4jJ8hO-oO8h0QIF-1" target="6iS-v4jJ8hO-oO8h0QIF-4" edge="1">
          <mxGeometry relative="1" as="geometry">
            <mxPoint x="442" y="609" as="sourcePoint" />
            <mxPoint x="442" y="464" as="targetPoint" />
          </mxGeometry>
        </mxCell>
        <mxCell id="6iS-v4jJ8hO-oO8h0QIF-7" value="2. Ga naar private link adres" style="edgeLabel;html=1;align=center;verticalAlign=middle;resizable=0;points=[];" parent="6iS-v4jJ8hO-oO8h0QIF-6" vertex="1" connectable="0">
          <mxGeometry x="0.1305" y="-3" relative="1" as="geometry">
            <mxPoint as="offset" />
          </mxGeometry>
        </mxCell>
        <mxCell id="6iS-v4jJ8hO-oO8h0QIF-8" value="" style="image;aspect=fixed;html=1;points=[];align=center;fontSize=12;image=img/lib/azure2/networking/Network_Interfaces.svg;" parent="1" vertex="1">
          <mxGeometry x="450" y="610" width="22.67" height="20" as="geometry" />
        </mxCell>
        <mxCell id="6iS-v4jJ8hO-oO8h0QIF-9" value="" style="image;aspect=fixed;html=1;points=[];align=center;fontSize=12;image=img/lib/azure2/networking/Public_IP_Addresses.svg;" parent="1" vertex="1">
          <mxGeometry x="477" y="612" width="20" height="16" as="geometry" />
        </mxCell>
        <mxCell id="TJV77hP6nXVfrqYF-aqN-1" value="privatelink.MyDatabase.database.windows.net" style="image;sketch=0;aspect=fixed;html=1;points=[];align=left;fontSize=12;image=img/lib/mscae/DNS_Private_Zones.svg;labelPosition=right;verticalLabelPosition=middle;verticalAlign=middle;" parent="1" vertex="1">
          <mxGeometry x="300" y="206.5" width="31" height="31" as="geometry" />
        </mxCell>
        <mxCell id="TJV77hP6nXVfrqYF-aqN-2" value="Azure DNS" style="image;aspect=fixed;html=1;points=[];align=center;fontSize=12;image=img/lib/azure2/networking/DNS_Zones.svg;" parent="1" vertex="1">
          <mxGeometry x="200" y="190" width="64" height="64" as="geometry" />
        </mxCell>
        <mxCell id="TJV77hP6nXVfrqYF-aqN-3" style="rounded=0;orthogonalLoop=1;jettySize=auto;html=1;" parent="1" source="6iS-v4jJ8hO-oO8h0QIF-1" target="TJV77hP6nXVfrqYF-aqN-2" edge="1">
          <mxGeometry relative="1" as="geometry">
            <mxPoint x="271" y="464" as="sourcePoint" />
            <mxPoint x="421" y="626" as="targetPoint" />
          </mxGeometry>
        </mxCell>
        <mxCell id="TJV77hP6nXVfrqYF-aqN-4" value="1. Vraag DNS op" style="edgeLabel;html=1;align=center;verticalAlign=middle;resizable=0;points=[];" parent="TJV77hP6nXVfrqYF-aqN-3" vertex="1" connectable="0">
          <mxGeometry x="0.1305" y="-3" relative="1" as="geometry">
            <mxPoint x="-3" y="7" as="offset" />
          </mxGeometry>
        </mxCell>
        <mxCell id="QzYwE57tTLNhT6OgIZri-1" value="" style="shape=image;verticalLabelPosition=bottom;labelBackgroundColor=default;verticalAlign=top;aspect=fixed;imageAspect=0;image=https://upload.wikimedia.org/wikipedia/commons/thumb/f/fa/Microsoft_Azure.svg/1200px-Microsoft_Azure.svg.png;" parent="1" vertex="1">
          <mxGeometry x="170" y="160" width="40" height="40" as="geometry" />
        </mxCell>
        <mxCell id="BrOR-9_JrOA270IvoE5D-1" value="" style="shape=umlActor;verticalLabelPosition=bottom;verticalAlign=top;html=1;outlineConnect=0;" parent="1" vertex="1">
          <mxGeometry x="760" y="401" width="30" height="60" as="geometry" />
        </mxCell>
        <mxCell id="BrOR-9_JrOA270IvoE5D-2" value="Private DNS Resolver" style="image;aspect=fixed;html=1;points=[];align=center;fontSize=12;image=img/lib/azure2/networking/DNS_Private_Resolver.svg;" parent="1" vertex="1">
          <mxGeometry x="477" y="281.5" width="38.53" height="34" as="geometry" />
        </mxCell>
        <mxCell id="XUS2xCRJ0AsaMGDfNzcL-2" value="" style="shape=image;verticalLabelPosition=bottom;labelBackgroundColor=default;verticalAlign=top;aspect=fixed;imageAspect=0;image=https://upload.wikimedia.org/wikipedia/commons/thumb/f/fa/Microsoft_Azure.svg/1200px-Microsoft_Azure.svg.png;" parent="1" vertex="1">
          <mxGeometry x="-78" y="150" width="50" height="50" as="geometry" />
        </mxCell>
        <mxCell id="XUS2xCRJ0AsaMGDfNzcL-4" value="Welke database?" style="endArrow=classic;html=1;rounded=0;fontColor=default;strokeColor=#B20000;fillColor=#e51400;exitX=0;exitY=0.3333333333333333;exitDx=0;exitDy=0;exitPerimeter=0;" parent="1" source="BrOR-9_JrOA270IvoE5D-1" target="6iS-v4jJ8hO-oO8h0QIF-2" edge="1">
          <mxGeometry x="-0.0909" y="10" width="50" height="50" relative="1" as="geometry">
            <mxPoint x="274" y="432" as="sourcePoint" />
            <mxPoint x="650" y="421" as="targetPoint" />
            <mxPoint as="offset" />
          </mxGeometry>
        </mxCell>
        <mxCell id="XUS2xCRJ0AsaMGDfNzcL-5" value="" style="html=1;strokeWidth=1;shadow=0;dashed=0;shape=mxgraph.ios7.misc.vpn;fillColor=#007AFF;strokeColor=none;buttonText=;strokeColor2=#222222;fontColor=#222222;fontSize=8;verticalLabelPosition=bottom;verticalAlign=top;align=center;sketch=0;" parent="1" vertex="1">
          <mxGeometry x="590" y="281.5" width="40" height="37" as="geometry" />
        </mxCell>
        <mxCell id="XUS2xCRJ0AsaMGDfNzcL-6" style="edgeStyle=orthogonalEdgeStyle;rounded=0;orthogonalLoop=1;jettySize=auto;html=1;fillColor=#d5e8d4;strokeColor=#82b366;entryX=0.982;entryY=0.493;entryDx=0;entryDy=0;entryPerimeter=0;" parent="1" source="BrOR-9_JrOA270IvoE5D-1" target="XUS2xCRJ0AsaMGDfNzcL-5" edge="1">
          <mxGeometry relative="1" as="geometry">
            <mxPoint x="442" y="609" as="sourcePoint" />
            <mxPoint x="670" y="290" as="targetPoint" />
            <Array as="points">
              <mxPoint x="775" y="300" />
              <mxPoint x="670" y="300" />
            </Array>
          </mxGeometry>
        </mxCell>
        <mxCell id="XUS2xCRJ0AsaMGDfNzcL-8" value="" style="endArrow=classic;html=1;rounded=0;exitX=-0.011;exitY=0.465;exitDx=0;exitDy=0;exitPerimeter=0;fillColor=#d5e8d4;strokeColor=#82b366;" parent="1" source="XUS2xCRJ0AsaMGDfNzcL-5" target="BrOR-9_JrOA270IvoE5D-2" edge="1">
          <mxGeometry width="50" height="50" relative="1" as="geometry">
            <mxPoint x="-170" y="440" as="sourcePoint" />
            <mxPoint x="-120" y="390" as="targetPoint" />
          </mxGeometry>
        </mxCell>
        <mxCell id="XUS2xCRJ0AsaMGDfNzcL-9" value="" style="endArrow=classic;html=1;rounded=0;fillColor=#d5e8d4;strokeColor=#82b366;" parent="1" source="BrOR-9_JrOA270IvoE5D-2" target="TJV77hP6nXVfrqYF-aqN-2" edge="1">
          <mxGeometry width="50" height="50" relative="1" as="geometry">
            <mxPoint x="600" y="309" as="sourcePoint" />
            <mxPoint x="526" y="309" as="targetPoint" />
          </mxGeometry>
        </mxCell>
      </root>
    </mxGraphModel>
  </diagram>
  <diagram id="cdZJPyOT9Rf-EunT2vrX" name="NSP">
    <mxGraphModel dx="2066" dy="1201" grid="1" gridSize="10" guides="1" tooltips="1" connect="1" arrows="1" fold="1" page="1" pageScale="1" pageWidth="850" pageHeight="1100" math="0" shadow="0">
      <root>
        <mxCell id="0" />
        <mxCell id="1" parent="0" />
        <mxCell id="X1A3Uz9Vy8ZawjXPMOt9-1" value="" style="rounded=0;whiteSpace=wrap;html=1;fillColor=none;dashed=1;" vertex="1" parent="1">
          <mxGeometry x="270" y="350" width="450" height="220" as="geometry" />
        </mxCell>
        <mxCell id="X1A3Uz9Vy8ZawjXPMOt9-4" value="" style="rounded=0;whiteSpace=wrap;html=1;fillColor=none;dashed=1;" vertex="1" parent="1">
          <mxGeometry x="490" y="394" width="200" height="140" as="geometry" />
        </mxCell>
        <mxCell id="X1A3Uz9Vy8ZawjXPMOt9-5" style="edgeStyle=orthogonalEdgeStyle;rounded=0;orthogonalLoop=1;jettySize=auto;html=1;" edge="1" parent="1" source="4U0CMGnqYyfHWQzrbLEE-1" target="4U0CMGnqYyfHWQzrbLEE-2">
          <mxGeometry relative="1" as="geometry" />
        </mxCell>
        <mxCell id="4U0CMGnqYyfHWQzrbLEE-1" value="App Service" style="image;aspect=fixed;html=1;points=[];align=center;fontSize=12;image=img/lib/azure2/app_services/App_Services.svg;labelBackgroundColor=none;" vertex="1" parent="1">
          <mxGeometry x="349" y="432" width="64" height="64" as="geometry" />
        </mxCell>
        <mxCell id="4U0CMGnqYyfHWQzrbLEE-2" value="SQL Database" style="image;aspect=fixed;html=1;points=[];align=center;fontSize=12;image=img/lib/azure2/databases/SQL_Database.svg;labelBorderColor=none;labelBackgroundColor=none;" vertex="1" parent="1">
          <mxGeometry x="600" y="432" width="48" height="64" as="geometry" />
        </mxCell>
        <mxCell id="X1A3Uz9Vy8ZawjXPMOt9-2" value="" style="shape=image;verticalLabelPosition=bottom;labelBackgroundColor=default;verticalAlign=top;aspect=fixed;imageAspect=0;image=https://upload.wikimedia.org/wikipedia/commons/thumb/f/fa/Microsoft_Azure.svg/1200px-Microsoft_Azure.svg.png;" vertex="1" parent="1">
          <mxGeometry x="280" y="363" width="50" height="50" as="geometry" />
        </mxCell>
        <mxCell id="X1A3Uz9Vy8ZawjXPMOt9-3" value="" style="image;aspect=fixed;html=1;points=[];align=center;fontSize=12;image=img/lib/azure2/other/Network_Security_Perimeters.svg;" vertex="1" parent="1">
          <mxGeometry x="490" y="394" width="40" height="40" as="geometry" />
        </mxCell>
        <mxCell id="TmeDc8ayh9Il0AQ-u9vA-1" value="" style="shape=image;verticalLabelPosition=bottom;labelBackgroundColor=default;verticalAlign=top;aspect=fixed;imageAspect=0;image=data:image/png,iVBORw0KGgoAAAANSUhEUgAAAgAAAAIACAYAAAD0eNT6AAAAAXNSR0IArs4c6QAAIABJREFUeAHtnQfYdEV5v3+iIAoIiCCKGlERFXuJscSKsXeRiMYuFhQUUVJMIvaCBY2JvRsTNSoW8K9GxR67YkNEiRUbSlNANP/9ye7Hfvvt7rt75jnnzMy557rea8+7e86Ue555Zs6U55EIEIAABCAAAQhAAAIQgAAEIAABCEAAAhCAAAQgAAEIQAACEIAABCAAAQhAAAIQgAAEIAABCEAAAhCAAAQgAAEIQAACEIAABCAAAQhAAAIQgAAEIAABCEAAAhCAAAQgAAEIQAACEIAABCAAAQhAAAIQgAAEIAABCEAAAhCAAAQgAAEIQAACEIAABCAAAQhAAAIQgAAEIAABCEAAAhCAAAQgAAEIQAACEBg0gZ0k3UjS3SU9UtI/SXqOpJdKesX4z9f+zr/5Ht/rZ/wsAQIQgAAEIACBzAlcTtJ+ko6U9DFJP5f0f4l/P5P0UUnPl3QfSU6DAAEIQAACEIBAjwS2kXQnSS+R9O3Ejn6dgcK3JB0l6Q6SnAcCBCAAAQhAAAItE9hK0r6SXivp1A47/UUDhF9Jeo2k20q6UMtlJ3oIQAACEIDA4AhcStLhkr6bQae/aDBwoqQnjfYX7DK42qHAEIAABCAAgWAClx5v0Dsr445/dkBw5niJ4PLBLIgOAhCAAAQgUD2B3cY79c8pqOOfHQg4796fsGv1tUUBIQABCEAAAokEtpX0FEmnF9zxzw4ETpP095IumsiGxyEAAQhAAAJVEriFpG9W1PHPDgS8R8AbGAkQgAAEIAABCIzO7W8v6VUjQzx/rLjznwwGXEYbINqOmocABCAAAQgMmYAt7p0wgI5/MgCYfH5P0k2HXPGUHQIQgAAEhkvgQEklb/KbdOZNP38/Pto4XAmg5BCAAAQgMCgC3gznKf+mHWdtz71J0sUGJQEUFgIQgAAEBkfADnZsp7+2Tjy1PPY3sOPgpIECQwACEIDAIAhcZuRp78t0/gsHP8fjbGgQ7YBCQgACEBgUAXvRO4nOf2HnP5lB8FHBPQYlGRQWAhCAAASqJXBZSd/psfM/b+wt8B2SXj42Lfy3I3fBjxn/+fo54998jz0L+plJp9z1p09FeLaEAAEIQAACECiWgB3j2H1ul52orQi+XdIjJN2w4Qa7i4+fdRweFHRtmfAbIzPClyy21sk4BCAAAQgMmoDN+n6io87/1yOb+y+T9Fctmdz1yYXbS/pXSb/pqEzHtVSWQQslhYcABCAAgXYJXEjSf3TQUXq6/KCxNcF2S3RB7LZc+NiOljXeKsksCRCAAAQgAIEiCBzWcufvKfK7StqqRxpO++4d+C84tMcykjQEIAABCEBgZQI3GXm/O7elAYCn+g+XtM3KuWn/xotIOqTFpQFbDLSjJAIEIAABCEAgWwKXGm2++3FLnf8bRuv8u2Zbcmk3SW9uqexmarYECEAAAhCAQHYEvFZ9dAsd4G/HO/qzK/CCDD1Q0pktcDiG/QALiPM1BCAAAQj0SsDT4NHH/Xwm/1q9lqpZ4leTZMt+0TwObpYdnoIABCAAAQi0Q+C6ks4O7vA+1PHu/mgyPi3w38FMzNisCRCAAAQgAIHeCWzXwk749zc04NM7jJkM2H7Au4MHAbaquMNMOvwLAQhAAAIQ6JzAa4I7OO8jcMdZS/CJBVsmjFwOeHUtcCgHBCAAAQiUSWD/4I7NG90uXCaKpbn2UcFjg1mZPQECEIAABCDQOYHLSzo1sFPzhr+dOi9FdwleQpINGEXNBNgk8Z7dZZ+UIAABCEAAApLfaD8V2Jl5ILHXAMBeNXjQ9DlJWw+AG0WEAAQgAIFMCDwzsPP/w9jRTiZFaz0bd5DkMkfNBDyr9RyTAAQgAAEIQEDSLSWdF9iBPXuAVJ8TyM+DiX0HyJAiQwACEIBAhwSiTf16Cjsnu/5dofQSyqcDBwGnSLp0V5knHQhAAAIQGBaBaFO/Zwxk3X+RlFwp2IEQpoIXkeZ7CEAAAhBIIhBt6vf+Sbmp4+H9AmcBvKcAU8F1yAWlgAAEIJANAdvjt1OeqI1rr82mZP1n5HWBXG0q+Hr9F4kcQAACEIBADQRs6vdbgZ3UiZiy3Uws4LsZDv6BAAQgAIFcCESa+uUNdX6teobld4GDLEwFz+fMtxCAAAQgsCKB+wR2Sl4+ePyK6Q7xticEsz5giBApMwQgAAEIpBOINvVrW/g+SUCYT8Bs3hM4CMBU8HzOfAsBCEAAAksIRJv69Tn13Zekx0/nE9hV0k8CBwGYCkayIAABCEBgLQI2Lxu149+W6m63VurDvvlWwZYWbbaZAAEIQAACENiQQLSpX2zVb4h8ixtsHjlyAIap4C0Q8wUEIAABCEwTwNTvNI3+rjEV3B97UoYABCAwOAKY+s2ryjEVnFd9kBsIQAAC1RLA1G9+VRttKth1TIAABCAAAQhsIhBtiAZTv5vQJl+YZdR+AAwxJVcHEUAAAhCohwCmaPOuS+on7/ohdxCAAASKJYCp3/yrLnqGBlPB+dc5OYQABCDQKgFM/baKNzRyTAWH4iQyCEAAAsMlcIWR//hTA9eXMfXbrixFn9LAVHC79UXsEIAABLIk0MY5c0z9tl/VNhX848BBG6aC268zUoAABCCQFYFoU79YmuuueqMtNWIquLu6IyUIQAACvRKI7kAw9dt9dWIquHvmpAgBCECgaAKY+i26+jZlvo0lnEtvip0LCEAAAhCoikD0JrIzJO1VFaGyCoOp4LLqi9xCAAIQ6I3A4wM3j9ky3f17KwkJTwhgKnhCgk8IQAACEJhLINqQjI0HEfIggKngPOqBXEAAAhDIjgCmZLOrktAMUb+hOIkMAhCAQD0EMPVbT10uKgkzPIvI8D0EIACBgRKIXiP2PgJCngSi93gckGcxyRUEIAABCGxEINrU7zGSfJKAkCeB6FMemArOs57JFQQgAIGlBDgnvhRPtT9iKrjaqqVgEIAABFYjgKnf1TjVeBeWHmusVcoEAQhAYAUCdAArQKr8FkwFV17BFA8CEIDALIE2poC3mU2E/7MnwBJQ9lVEBiEAAQjEEYjeBIap37i66SOmPSV5I5+tNkb8sQm0j1okTQhAAAIrEOAY2AqQBnZL9DHQQwbGj+JCAAIQyJ4AhmCyr6LeMoip4N7QkzAEIACBdglgCrZdvqXHjnyUXoPkHwIQgMACArzhLQDD15sIMEO0CQUXEIAABOogwBpvHfXYRSnYI9IFZdKAAAQg0AEBTP12ALmiJDglUlFlUhQIQGC4BDjnPdy6Tyk5diJS6PEsBCAAgQwIYOo3g0ooNAtYiiy04sg2BCAAARQ4MpBKgAFkKkGehwAEINAxAaZwOwZeaXIsIVVasRQLAhCokwCbuOqs175KxSbSvsiTLgQgAIE1CXCMa01g3L4hAY6RboiIGyAAAQj0SwBDLv3yrzl1DEnVXLuUDQIQKJoAplyLrr7sM498ZV9FZBACEBgqAd7Qhlrz3ZWbGabuWJMSBCAAgZUIsEa7EiZuCiDAHpMAiEQBAQhAIIIAu7QjKBLHqgQ4ZbIqKe6DAAQg0CIBzmm3CJeoFxLAzsRCNPwAAQhAoBsCz5b0f0F/f5C0bzfZJpUKCGBpsoJKpAgQgECZBFDAZdZbTbnGVHBNtUlZIACBIgi0MQW7dRElJ5M5EWAJKqfaIC8QgED1BKI3Yf1G0p7VU6OAbRFgE2pbZIkXAhCAwAwBjmHNAOHf3glEH0O1jBMgAAEIQGCKAIZYpmBwmRWB1wRtRvWm1rMlXS+r0pEZCEAAAj0SwBRrj/BJekMCyOeGiLgBAhCAQDMCmPptxo2nuiMQPUNlmSdAAAIQGDSB6DXWQwZNk8K3SSB6j8r928wscUMAAhDImYB36HunfpTBn2Mk+SQBAQJtEIg+pXKGpL3ayChxQgACEMiZAOesc64d8raIwKUk/Thw0Po5SdssSozvIQABCNRIAFO/NdbqMMqEpcph1DOlhAAEWiAQrUCf2UIeiRICywhEmwq+3bLE+A0CEIBADQQw9VtDLVIGL2F9KnAp4BRJu4MVAhCAQK0EojdRYeq3Vkkpo1yXl3Rq4CDgWDaxllHx5BICEFifQPQxqgPWzwJPQCCUwH0CBwA+DYOp4NDqITIIQCAHAtGGVGyelQCBHAhgKjiHWiAPEIBAlgQwpZpltZCpIALIdxBIooEABOojgKnf+uqUEm1OwDNcvw1cDsBU8OZ8+Q8CECiQAKZ+C6w0styIgM1QR1m1dDyYCm5UDTwEAQjkQOBKmPrNoRrIQ0cEok+5YCq4o4ojGQhAIJYApn5jeRJbGQQwFVxGPZFLCECgRQKY+m0RLlFnTSDa0qXbEgECEIBAEQSiFSCmfouodjI5RQBTwVMwuIQABIZBAFO/w6hnSrmcAKaCl/PhVwhAoDIC0ZugMPVbmYAMrDiYCh5YhVNcCAyZwBOCj0Fh6nfI0lRH2TEVXEc9UgoIQGAJgetJOjtwAICp3/NhX1ySj1PeVNI9JD1EkgdaR0g6StIbJB0t6UOSviDpi5JOkvT9saOa0xLqxM/a2Y3jcpyO22k4LafptJ0H58V5ct6cR+d1T0kXWyIvQ/op2lTw9YcEj7JCAAJ5E7Ap1G8ndDSzxlMcl+OsPewg6ZqjTvUukg6S9DxJ/yHp42OePgc+y6a0/08fl8VleutoUPDccVld5n0kbV97JY9l+VuBdXnCQLgNQDQoIgTKJxBt6ve65SPZVAK/Bbs895X0j5LeMn6L/lVgh1DaoGA2v2bx+TGbp4xZXaeyGQTLQOQM2es2SRgXEIAABHoicL/gjszmVEsMF5Z0dUn7S/K57fdLOlnSH4P5zHaeNf//h/Hyw/sk+VidB1FXk2TWJYaDg2XBbY8AAQhAoBcC0aZ+3ztaT/ZJgtyDj3j5je6Rkl49fnuNdARTc6ceUTaz9ozBqyQdKMmzBa6T3INl2zIewcBxeI+G2yABAhCAQKcEtpb02UBl9mNJtiGQY7icJDs1OnK8Pn9WYLmjOoOhx3PmuG5cR9557zrLMUSbCnYbdFskQAACEOiMQM2mfi877vBfMfr8Bp192Btr14OUn0h623iWwBsOcwnRljIxFZxLzZIPCAyAwL6jDW1en41S6F7f7TNcQdIjxrvUPRMRVS7iyYvlj8YbDR8myUZ6+gw2bx0lH26LbpMECEAAAq0S8DS936yilNdnepjC9BHDO43PsEcez4piQjxx8rWMpWd3XjRayrrD6Aim7S10GaK9ZbpN7tZlAUgLAhAYHoF3Bnb+XZr6tWEanzD4cPBxrGUdDL9105FHcP7dyIDRByU9TtKfddSsLZNuAxH5dxxumwQIQAACrRC4f6CyssJq29Sv132fOj53z3G8uI4mqsPKOR7PDjxnNGC8ecsnU6JNBbfdplpRLEQKAQjkTeAyo7ejSOM1bZj63UrSX0r6F0le7825gyFv5dTPDyW9ZGQC+WYtDQZ8lDRKHn4pafe8VQm5gwAESiPwrkAl5XX3KFO/Plv9F5JeKMmKOkqREg8s58nADyS9QNKfBzZgt4XIvSjvCMwbUUEAAgMncJvAjtXmUCNM/V5jPEVrRzXzFDXfwaVtGfje2EKhLUCmhmhTwT5qSIAABCCQRMDT6vYAF6VMbQ61adhpfKb7k4H5iSoX8cTJSIksvWfg8ERjVt6kGlX2L0ty2yVAAAIQaEzgwYFKqYmpXx+Xuquk/2L3fljnENXJEM+WHbZnuGx86M4NfBZEmwr+m8atngchAIHBE7CJ0f8NGgCsa+rXplztZx7DPOd3Mj7F8FNJX5H00ZH9e+/JsBdG7334J0meWbHC92DJGyFvMDoWdu2xrXjbi/eRs52n/qYd6vh6+jff62f85zgcl+N03A8cp+U0nba90jkvzpPz5jxy4uL8OvOeFHPaYw1NEmkq2MtjJfhIWAMPt0IAAl0ReEBQ529LZd5HsFHwlKWNsrxb0nlBaZfwlnqupBMlfUzSm0ZGaZ43tllw79HZ9JuOrdaVZO99m9HgxNYVnXcfc/PU9vMlvVnScZK+K+n3A6pfl9Vn9P9qxWl5t5UoS5t4DNxI6/A7BCCwBQFPR/qNLqIDdYe2LPjt88mjN9iTgtKLyHMbcfho4kdGx7ReLumJo70Vd5F01R4sIS6ri65+84DGZfesglnY74JnEWqf8fHg57CRBcIdNwDtNhMhg1/aIB1+hgAEILAFgdsHKaATJF1si9jP/2Kv8Zn9M4LSilCYEXH4LPaHxm/yfgO7/siT4PYLGPD1lgR2GDOzURt3hGZpphF1k0sclnnbFrjylsX/0zduM247EfnFT8ACyHwNAQjMJxBx7t/TmLeYE72tq3mjVA3T/LbB7s2Nthrn9XFbH/TsCSGegL00esbAu+3fOPbUWPp+A7cRD3BcrtngthNRvrfPRsz/EIAABBYR2EXSOQFvH2+YSsDr+/eV5CnJiLeaPuKwvXivYT9D0h1Hb3CXnCofl/0QsKzasZO96318NDhwHfUhGxFp+rit90xMH99zG0qN2ycTvMxGgAAEILAhgccEKB1vbPMucq/1+s040tJZqkJc9fnTx29n9ifgadRtNyTHDX0T8K53n1rwxkPPMpW4dOB9As7/RSVdMej46yP7rhjShwAEyiDw6YABgG39P1bSyQFxrdphp97nDt+7tQ8a2R241sybWBk1Ry5nCfht2kcZLYte1nIdp8pJV8+77VgWI3wFfGoWDP9DAAIQmCVw6aB1R087dqUom6bj9VVbTHv26AjerQa6G3+2/mv/3zNStx7v2fApl4g19qbyt+pzEcsa3muwW+2VS/kgAIE0Ap6uX1UxlXifPRp6avjA0ZuVjQ0Rhk3AneJ+402Fkd4uc2wbdudNgAAEILCQwFsqHADYmqGt1tmd67QFvIUQ+GGQBCwbtnj4Ykn2+pdjJ56SJ5+cIEAAAhCYS8DrpT+vRPHZU5utz92YY3lz65ovlxOYuJk+srB9LMsGCKfQFpZXOr9CYMgE9i688/emqaMk2c4AZ/GHLMnxZbd9B58G+XbhbWSR4aF4YsQIAQgURWD/gpWb7eYTINAFAZ/VX/amnfNv3u9AgAAEILAFgSj7430owIdvURq+gEA7BB5R8ADAJ14IEIAABLYgYJOkfXTeEWna7gABAl0QsBvmCJntI47/1wUg0oAABMojUJLRnlnlaUuDBAh0QSDKSc+sDHfxvz1uEiAAAQhsRsBHoGy+twsl1EYaNuiy62Yl4h8IxBO4VCHGgxa1Mfv4mPY1EE+IGCEAgeIIXL7gzn+i7OZ5VCuuIshw1gTuVkE7sVdFAgQgAIFNBGwkZ9KR9vFpT2inJubhWZtKwwUE2iFgt88p7cMybllPiSP12Zu0g4ZYIQCBUgn47TlVsTR5/vixKVaf27ezliZxTJ75WKnwyXcxBD6RKKN2NuVg75J9DQTuPM4DHxCAAAT+ROC+iYpt0gmv+vk1SfeaMdjzxMQ8/FbSxalPCLREYDtJqY55njCVNw963QbcFlZtNxH3YQtgqhK4hAAEpId0pIS+KckOh+bZ5LfZ3lQFdw8qEwItEXBnnSqfN5yTNw8EPANnz5Sp8a/y/IPm5IGvIACBARN4TMvK50RJ99tgB7JdtZ6VmA+f0SZAoA0Cr0uUzTMkXWRJxrw7/wBJbiurdORN73FbJ0AAAhDYRKCtAcCZoxRsQ/2im1JafmFDJU0Vm5/72YLZheWp8isElhPwjNUvEmXz/cuT2PSrB8KHSDotMb1F7ejRm1LiAgIQgIDilwB8Lt/uR3dfk27qPgArPZ9oIEAgksAtAjpjd+rrBNscsHOr8wLSnh4MsASwTi1wLwQGQCDSEdDnJTU9anTNAGX33AHUF0XsloBdS093ok2ur9YwyzcYnRr4ZED6kzyzCbBhRfAYBGolEHEM8MeSDtxgnX8Vfj9MVHaYBV6FMvesQyDV/K9lOiV4o6A77ghz3XdKyQjPQgAC9RG4aWKn6+NR2wdhsWOfydtK08+9g/JCNBDwm3tTOZw898ogjG5jqUcR/yIoL0QDAQhUQiDCFLDXLCNCxGzE0yMyQhwQkPTMgAHAHYNIXjogL5gCDqoMooFALQQinAFFbb7bVpKPTE3enpp8esp1nq2BWuqLcnRDwMf2vLTVRAYnz3g3/6qnYDYq1V8m5gVnQBsR5ncIDJRA6vriwYHc3p6o6Kx8WesMrJCBRhUxG/XvgewOTWwXuAMOrAyigkBNBD6YqFzeHAjDBlEmb1BNP/8rMD9ENUwCqf4pLLs2sx0V3prYLj4QlRHigQAE6iKQ6unsRzO2/VPo2O566jLA7xvYIUjJM8/WRcDr7ecmdrg2hGVZjgg+CZC6HOH9DAQIQAACWxCIsAXgc/xRwVOnTd/+J88dFpUZ4hkcgcMD5M/GsKLC9QLyc++ozBAPBCBQF4G9AhTM3wci8Rr+pCNv+olNgMAKGVBUfttOPftvmb1DILN/CmgPVwrMD1FBAAIVEbDSsy39pp2tnzs+kIdtov88MT/O0+0C80RUwyDgjjulHfjZUzZw/rMuSQ9mU/L008AlunXzzv0QgEABBLyRL0XJ+FlPVUaFFwXk56NRmSGewRA4LkDujgykZTfCqe3yDYH5ISoIQKBCAn8ToGheHcjFVtjsWChV+UXZKAgsGlFlSsCW8lLlzc9fPbB8rw/Ik91xEyAAAQgsJOCdz6kd7m8lRVkFdEY/HqD83ruwxPwAgc0J2G1v6gAgctbJbTLV/O8fJO26eTH5DwIQgMCWBD4VoAB9pDAqPCAgPx7UXDsqQ8RTLYHrBgyAPXiIfNv2UkLqgOQT1dYYBYMABEIJPCpA4fj8s99cIoJNA6duTrQCtREVAgSWEfjPANn35r8o07+7SzorIE/20kmAAAQgsCGBS0o6O0DpRO4FOCIgP+dJ8lFHAgTmEbiyJMtI6tv2P86LvOF3rwvIj5cPdmqYPo9BAAIDJGAzuqmK0OuONwpi59mEiEEJswBBFVJhNBFv/+5so9babyzJbSi1Hb6twrqiSBCAQIsEfHY+VfH4edsFiJoOfW1AnrwXgBMBLQpOoVHby17q5lfL+6uCyu828/UAeXeebhOUJ6KBAAQGRODLQQooakOgzQxHKOnPS9pqQPVIUZcTsCx8MUDW/bYedfTvuQH5cef/heVF51cIQAAC8wlEeOSzErJivO38JNb+9p1BivHBa6fMA7USeFiQTEVNtd8yaC+C216kJ8Ja659yQQACcwhcRNLJQcrRXswibANcP2gWwPnZfk6Z+WpYBC4hySZy3Vmm/Hlm6joB6Lx/INXj36QcJ0m6cECeiAICEBgogQclKsaJMvLnMUG2yCMMtTg/zxhonVLsCwg8L0i+331BlI2v7Ivj6KD8WL49g0eAAAQg0JhA1ProZCBwcOOcXPDgnwfNAnjHto9+EYZJ4KpBJ0v89u+ZqdRwSGDn/7mgwXZqmXgeAhAonIDXJCcdeOqnj/JFOAt6e1CebPWQadLCBbRB9j2wjTAx7fYQcbT0WgHmfqfbpk81ECAAAQiEEIiwCzBRUHZrul1irvaW9PugQcChiXnh8fIIPDlIds4NMC7ltpDq6nfStvwZtRmxvFolxxCAQCsEbJL0l0FK00oqwkrgK4Ly41mJfVqhRqQ5ErhG4Nv2vwYU8DVBcux25TYaZYI7oGhEAQEI1EIg6ljg5G1l/0Qwl5F0epDy9JqpTz0Q6iawddCZf8vwaZI8ME4JbgOT9hDx+dcpmeFZCEAAAssIvCNQYf1G0p7LElvht6ipXCvfp6yQHreUTeCpgfJ7WCKKK0g6NTA/EScREovE4xCAQM0EdpP0k0Cl9enEN+9tRsedvhOUn3OCNijWXP8ll+2GkrxmH/Gm/W1Jlr2mwTMRnwnKi8vjNhnlg6BpmXgOAhAYAIF9g5yUTBTxMxOZ3TlQkZ4oacfE/PB4fgR2lmTDOBOZS/28Q2IRnxWYF1vadJskQAACEOiEgO37pyrRyfMRCizKRLDz9B7OUHciQ10lYgM77wqUV3sNTAmRpn4trx5MECAAAQh0RsBTmJ8NVKqppoIvK8l7CiaDitRP7y0g1EHg7wPlwmv2KRv/Ik39WsbdBt0WCRCAAAQ6JXCl4E431VTwowIVvWcl7tYpTRJrg8CdAh3ruMO146CmIdrU7xkBNgialoXnIAABCOh+gZ2uFWyKqWAr2OMC8+MjhnZBTCiTgJ3zuJNMnQ2aPP+RxKWhSFO/zpPbHgECEIBArwReF6hkbZTnugml8bHCKNsAVrLfl+TlBUJZBC4n6X8D5dLLS3+WgMAybdmeDCZSP1+bkBcehQAEIBBGINqUqY/17ZCQu4cGKlor6hOwrpZQG90/6nX2bwTLwAMTihHdPnxSJaV9JBSFRyEAAQhsSSDamUmqqeBIg0UeBHxFko+SEfIm4COcXwju/H2CICVEmvqNcqaVUh6ehQAEILAFgccHK94UU8F+C/xRcH4+IeniW5SaL3Ih4Ddte3dMnV6ffv4HknZJKGC0qV+3MQIEIACB7Ah4E57P0E8r0JTrVFPBtwj0GDgpx4ckbZsdeTJkq3w+RTKpp4hPe5u8eQLaaFO/xyZuQkwoCo9CAAIQ2JiA37wjTQXbXGqKk56/C+4U3LHY6BBnrzeWha7ucOcfaehnMnhIsQWBqd+uap90IACBrAhEmwpOsXS2laT3tzAIcJwsB/Qvdq4DvxlPOu2oz/cmvm1j6rd/2SAHEIBATwSeHaiUU00Fe8d09K5wdzQfx29AT9J1frI7SfK+jKhOfxKPHf047qYBU79NyfEcBCBQBYE2TAV7eaFpuFqw1cJJZ/FVSZdvmimea0zAZ/KPb6Hz/7WkqzbO1fke+WzWeiIfqZ+Y+k2oDB6FAAT6IxBtKjh1WtZeA88LVM4T5W6Ff4P+MA8u5RtJ+mkL9WjZuH0CTW+CtYxO5CL105tg3YYIEIAABIokEG0q2OYhHk6JAAAgAElEQVRUU8JBgQp6WsGfKek+KRnj2ZUI+FjdWS3VoX1JpARM/abQ41kIQKBzAt5BbTOlDxq7FX2jpI9J8jqo37Ls/czHoaY7uz6vU00FG/BzWyrPH0cbA5+XeGqhcwEoJEGfBHlhS/VmeU7ZaGqE0aZ+U9uY26zbrtuw2/JHR7MJbtsup60a2k8CJ1kKEX6yCYEoAjaW4mlOd1Sfl3Rui0o1VYktev5bklyOpsFTtW9psdx2GnOZppnjuS0I7BHs5GlWrt6UuOM/2tTvbP7a+v8cSZ8b2bV4zsiA0u1GA+OLbUGeLyAAgeIJeBf8AZKODnZI0pZiWiVem1dNCZ75aON44CTvP8edcEr1bHr2npJ+2eJgzYarUt+EI039TuSnj8/fjW1c/HXiAHtT5XEBAQj0R+CGkl4v6bctKtA+FNUkzRRTwa4Vv/H8d8ts/k3S9v2JQLEpe9D6ipbrJsKqozvLiTzW9Ol9Fh7YXK9YCSLjEBggAU9v32s0zW8LejUppHllSTUVbPFw5xxtP342rycn7i4fmhjfKdiV72x9+H/bD0hZRnKd2PW0ZXBe/DV990lJd09cJhmaDFNeCHRKwB3/3UYN9csDUEjTytUDndQp3Eu0ZFBmOp++fgNuhZe2Ce+beHMH8msDTqnudC1zQxhkT8uwvSz6KC0BAhDIiIBd8VqpTTfWIV2n7uB2Vfpt8MMdMPQb46EBg5aMxC85K96P8aQRl9M74O9p/wgTzpGmfktrqz5RcI3kWicCCEAgiYCnr48sdCd/pNKzqeDbJpE8/2F7+WtzY+B0mX2S4d4Dn1b1rNV9JZ3QQcdv9u8L8uRoWbPMTdfn0K59esgniVKXUQKaLVFAYHgEbizpxIEroWmla2t8KaaCJxLkqV1P1U/H3ea1p1XvMEl8QJ9e5/9Sh5y9GTZ1qcjVYxmLNPXbpmx1EbcHb7bMSIAABDogcOGR0vznzIzzdKFoVknDb3h+q0wNjuMZHXZOLpsHAn4bdv3WGlw2n9zosuM326cFyoVlbBVZHNI9ng14yoizPW8SIACBlgjsKOkYFNBSBZxqKni66g7sYaD1XUlPkHTJ6YwUfr3LeN+Dy9Zlx+iO6eGB7KJN/XbJoou07AfBG2oJEIBAMAF7KPO6cRcNueQ0IkwFT1fdrSX9ogfuNsripQi7li3xzcp5Njtb2XNZupYpG2Iyu6iQm6nfrnmump7dbl8lCjrxQAACkg36tGkNbdXGXcp9tn0euTnJ572/1kMnNuH9w9GxtReMZn/+PPPBgDt9702xzf4f9cjrKyMDWFcMVByWJcvUpD74XM7Cgy8MCAUKIFENl8AtRlPCp6F81la+qaaCZyXOJy7a9B+waqdyiqTXStovaNPjbDnX/X+38d4Fb7L7WQZy6hmHyMGfedRi6ndVGYu479eSbrquMHE/BCBwAYFbtej6NKKR5x6HzbRGB68p52Ja2d4Hvzk2mfvQkS/6G0i6aHSBp+LzMUmn4bRsptdp5yIDNl37kKm8Rl3Wauq3i3qzi+ybR1UE8UBgSAS85jgEM6NtKqIIU8HzZO6aozdwr3W2mfemcdsNrDtmO7l58cgl7MFj09BeD99nbIlw5xlLeLaK5+92H9/je22jwM86Dsfl/Sc5uYWe5nN8S4ZphmLqd5pl9LVnAq49rxHxHQQgMJ/Alcd+vKMb47L4fjU2lPLM0Xqn33puNpr6vPy4Y7Av9q6Cz1n/JLBzjTAVPK/sfhu2EaahG4RZJlNt/3beyKHTc1ua9Yg29WuZjrBTMU8W533nNutB3RXGbfl+kmy90McYTw1sX6vUscvuwRQBAhDYgIDfxrp6u/Sb4lNHSsGbDHM6fx5taS3CVPCiavMUZ9fH21ZRurXfYyNYHqS2FSJN/UZZqowqq9u6jfcc0eHJIs/S4BUzqgaJp0oCNkDzjpZH5z6S5U1kXsvNOTw7kEPbCti25Z+DSeZOlkR8tt+yEWHPf5H8Rw9And+cgwcD3sTpI7RtDhz/M8ggU84syRsEGhN4cosN0B3/UeN13sYZ7PBBT8F+NpBHlKngZQi8N2DITpna7Dwc98daWuufrtNoU7+W4QgTxNN5bOv6spJe2vJAwI6wCBCAwAyB60g6J7DDm1bGRwefi57Jemv/Xil4I2SUqeBlBfYszgNGO+V/0FJdTtfrUK5PlnRAB2+PrrtIU7/ehGoZLi04z7bq14Z8eZbBA2UCBCAwJmB3qDZeEt3gbJDjnoVT9ualSC6RpoKXob3YaED3d9hwSKo7d6CHB3nwW1ZXk9+iTf1adksO92nJANkXC5oVKbn+yHshBLwRL7KTc1z2e+5jXTUE71mI4uM3kC6tlHlK+fmSfCY6qgy1x3PGeHd/l7vmo039WmZrCF4W+GgLsmvnQQQIDJ6ATZZGG5bxWn+XR/farsRoU6zRpoJXKb87M/tPZyCweCDkjt+bKbvs+F13NcjXKjLY9B7vYXhZ8CDAhpt8zJgAgUETeHtgw7JluMMqpXmtYKcy0aaCV8Vub2meamaPwAUDgZ+O4HkWzF4D+wglzzB1ycvLMZGzT//eZeZJCwK5EfAZ8qgG5c7/UbkVMDg/jw/kZe5tmApetch+q7q/pE8HlylKnrqI51PjzX197pKPNvVrGa05PC5QXq2zblIzLMoGgWUEPhjYmDw6rz14l7ZPNER1Tp5y3isDaHuPp77t6CeqbLnGY4uT9iOQg3lYW8mLtIp3TAcnFTIQV/1joJwem0OByAMEuiZg4xtRSvrfus58j+l5fbgEU8FNEPlN+I5jQ03uKKPko+94XJZXS7p9Rru/zdpmoqPYdG3qt4l8RT7zqkB2tkRKgMCgCLwrqAF5GtXHCIcUhmCpzR2UO0wbZvlOkKxEdXarxHOCpJdk1ulPt5GaTf1Ol7Ota3ud/J8guXxnW5kkXgjkSMDTzhFOZHxOeqg7aUsyFRwhgzbO8ujRksVbJNkwziqdcJf3fF/Sm0dOrB5ZgOOXIQwgI2Ruozh8gun0AFm0LrzKRonxOwRqIeA3owjl/OBagDQoh9+QI00FlzaFu4ckG2p5hqR3SzpJkjdVRcjVsjisrO38yDNYTx+7DfZZ8VKCl5BsFnpZGdf5rSRTv23U0cODWFonEiBQPYEdg0bNNs4x9FCiqeA268wOcmxm9a6SvFv7hZLeJMmb0zxd6477F+ONb94AOenofO3NcP7N9/heP+NnXzCO6y6S9mnZCU+bbBw3pn7jCZtphP8LzyRYNxIgUDUBn9OfKN6mn/aDbt8BBGm/AJ7T9dCVqWDqrnsC0cdI7Z+AcL5lTeuk6XbU5BpHQUhT1QTsh9trpU0ax/QzfjMjXEAAQy4XsOBqPgGbf450d1uLqd/5tNb/9q0Beu17o2Ul60gCBKok4DXb6Y68ybXXefGmtbl42JTrtwLYTurjxNHU9w6bJ8F/BRNAPtqvvGsEbWy+V/tZJQUI9EMgYq3sPf1kPftUecPLvop6y6DNPk8Gd6mfXTuT6g1ag4QjXAhbRxIgUB2B6wcpodtURyauQKzxxrGsJSb2iHRXk/sG6TgbSSNAoCoCXrdPffs4fiCmRptWfK2mgpvyGPpzmPrtXgK+GqDn3tB9tkkRAu0RuIykcwIaxkPby2I1MUef8/7cAC0t1iAMdocd6WjJfhouXQOYlssQYRfgXEm2c0GAQBUEbDAl9e3/5yOHMdtWQaP9QtxSUsSxpEmd2WwsoSwC0aZ+Pb1N2JiATQRHOLU6YuOkuAMC+ROgQfRTR9GmgukA+qnHJqkyAGxCLe4ZXnjiWBJT4QQipsS8fOBlBMLqBNqYAt599eS5sycCLAH1BH4qWZY8p2BwOWwCbIrpr/73lGSHSZOp/NRP+y73RkNCngTYBJpPvbDpOZ+6ICc9EeBYTE/gp5KNPgbmo4aEPAlwDDSfeuHYcz51QU56IhBhGOO4nvJeU7KYCq6pNueX5VqSfhc422PjQYQ0Ap8IqI+j07LA0xDoh8BemMbsB/ycVDEFOwdKRV9Rv3lWZpTp873zLB65gsBiAi8NGP2ejHOMxYDX/CX6DRFnMGtWQIu3M8PTItyEqO3Yxw5+UvfevCQhDzwKgc4JXELSaQGCj3vM2KqLXiO+f2z2iK0Bgeg9HriDblAJSx6JcH9+hqSdlqTBTxDIikCE0J8uacesSlV+ZtglXn4dTpcAU7/TNPK8jnoZemKexSNXENicQNS011GbR8t/QQQ4Jx4Esudo2rDzgKnfdio1ajnUdU6AQNYE2PiSdfX8KXNYisu/jjbKIZYeNyKUz+9RG6LvnU+RyAkE5hPg6Mt8Lrl9G20r/na5FbDi/DCAK69yI45Ef7y8YpPjIRHA+EU5td3GFDKmgtuv/zaWcLZuP9uDTwGjaIMXgfoBYP6yrDqO3kSGqeB26z96E6fNRNtcNKEbAhFm0d/YTVZJBQLrEcABxnq8crk7+hgZpoLbq9noY5wHtJdVYp5D4GEBR6PPlbTHnLj5CgK9EsAFZq/4kxKPNiTjpSBCLIFoQ06Y+o2tn1Vii3KN/rRVEuMeCHRFYFtJPw8Y3dYg2J5StQvkl0n62NgS2KmS/hjAJ9WiGM+nW2WDYfsM3VbcZmxF76PjtuQ2dcWuFFqL6fCi1CJcou6HQMTU1jmSvIxQYrjcKNNPlfRtOvlks6d0sO13sCUzdhv7Z0lucyUGlkpLrDXyvJTA1wI6vhI3t1xd0tsknRdQ/pKVMnmn0+5aBtzm3PautlQz5fljxGZpbygkQKB3ArcN6vxu0HtJVs/AzqM3kFfT8fO2HyT7XXeeNaXngcArC7OVb10XUQe3WV1lcScE2iHwngBhLsnAxR1Ga/w/CihzhAIgjhhFCsfyOf5Q0u3bUXGtxBphMM26lwCB3ghEmbi8V28lWC9he0r7A51/yNsLnW75nW5udejNg96LU0KwWd9Ufi7v3iUUljzWScB+qlOF+PuS7EAo5+D8vS6grKmseD5d3mBYP0Mfay1Bp1j3pcqjdTABAp0TiHJzeWjnOV8vQVtf8xpjakPleRgiA93JwOslbbVeU+/8brv4TZWJMwrb/9A5ZBJsh0CU8O7YTvbCYn1+QCNNbeQ8n64oYTg8hkeGaYF2ItpJkjvwVNnM/SWqHXrE2hsBT6/ZSEeq4B7VWwlWS/i+AWVMZcTz6XIGw+EyfMBqTb23uyKWUU+WZOdeBAh0QiBiA4s303kTYa7hSpJOZwCQPMij8x1u55tD3bsNuy3nGoa2kTrXeiBfaxCIOMJy9Brp9XHr++j86fyRgSpk4AN9KJA10hzaUeo10HBrbgSijFjYgFCu4Z4o/ioUfw5voOQhjxmQu+eqbCQN0ZhaxtVB1pYRiDBjebwk767PNXyJAQADAGSgKhn4SuY6x/lLHSyWaE491z6AfM0hMARHFncJaIipDZnn05UhDGE4KwO24plriHCodq6kPXItIPkqn8AQXFm+nwFA8pvIrOLlfzrjHGQgZ9O5F5V0SoDuqcGlevk9ZYUl2FbSzwME1IOIXMMukjyKjlBWNtP5bkk+Smg/5tvkWmjyBYHMCLit7Clp/3EbcluKaJN2OX7JzMo6nZ0hvGBNl5frgghETFG5AXoZIdfwkCBF8x1JN821kOQLAoURuJmkE4Pa5oMzLnvUEqt1NQECoQS+FtAAc9+kEmHv3xscdw8lT2QQgIDblNtW6kzAazJHGbHJ2rqaAIEwAkM5pvLdRAVzFt65wmSOiCAwS8Ce79zGUgYB356NNLP/h3DMOjPkZGcjAkMwVHExSalrjUdsBJLfIQCBJAKp6+S2QJr7fpwIQ2s5b3hMEgAe7pZAlKlKmw/OOfjtIuXN4jyO4ORcveStEgKXk+ROPKWtXiVzFkMwtZ55FZC9CYGXJjY2N1T7vc7dP3fqMse3JsD4hAAEWiVwQqJOulWruUuP3LrSOjNlkONn7WiIAIHGBKLcVdp1cO7hTokNLnffBrnzJ38QWJXAexPb6u1XTajH+4bibr1HxCS9EYHDEhuaR6H2xrXjRgll8LtthaeMuG1AiAABCLRP4NjEtnrn9rOYnMIlJJ2WWE7rsxJevpJhEUE8gahpKC8hlBD+KrGx/U8JhSSPEKiAgNtaymA9Z0dk09UzlOXX6TJznQmB+yQ2MjdQ76r35roSwrUTy/vrEgpJHiFQAQG3tZQBwD6FMPBmxdQNj+aU+wbsQqpjWNn8eGIjs+B5ra6UsGtAeTEAVEptk89SCbiNpXT+fvZSBRU+db+Dy2tdToDAygSuH9DILHi3WTnFPG5MfbO4ZR7FIBcQqJaA21jKAKC0mbrU00kTVjeqViIoWDiBCHOUNtt5ofCctRth6trige1mj9ghMHgCj0wcAHy2QIJfSSyzBwG5m2EvsFrqzHKUQ4qHFojnDYkN7QUFlpksQ6AkAi9MbKNu46WFCEds9nK6R2kFJ7/dE0g1tenRpt0G231waeHvE5XL+0orMPmFQGEEfNx2Mq3d5NNtvLRwUUmnJJbbrJ5WWsHJb7cEogStVJv4qSY47UyIAAEItEfgpMSO8F7tZa3VmN15NxnwTD/jFzP7PCFAYC6BhwcIWclTTddMLL/9AZQ48zFXGPgSApkR8AuK29h0p7budSlHAGfR7ybp7MSym5WXEwgQmEvgqwECVuIa2wTGkBXMhAGfEMiVwNAH6N7It+6AZ/b+Ejdn5yqPVeVr3wDhsrCVftxkqFOMVQkzhamSwNCX6KKOZ5diCbFKIc61UBEGJ47LtXBr5GuIm4zWwMOtEOiNwD8kvqTUsEk3wkDbe3qrQRLOksBeQSYnS91gM10pQzxmNF1+riGQK4HUKfAajummzoJ4lrYkE+25ymJV+YpwOnGyJDsQKj0M0dBI6XVG/odBAENd5+vY1GVKDwJeMgyRoZQbEdhp5DLyjMSpNQvUoRslVMjvQzM1Wki1kE0ICFPd5wuBXfxa56b8nTkaBFwSmYJAhDB5AOGBRA0hwtkIToHykoRdJO0v6ZmS3iXpREmnjv9Ol/QbSTa3erQkLwHdU9KOeRVh8LmhXV4gApbNiJc2637CgAl4yv77iSNJj0K9hFBT4E2j/NrcWZJ9M3xQ0u8byLif+eTIquVjJG1XPo7iS8DM3OZV6Cn8lBkAP2vdX8Oy7eZk+G9lAhEbSuyv2psIawp2GJLSuHAK1J80uOO31bTTEutwuv49W/AcSfaTQeiHgNvUdJ2se12iE6BlpKM2brsPIAyUwCcSG5UboY8P1hZSnQJ5GpnQLQG/yRw+ns5ft3NY9X4vFXhGYKtui0Zq46WZVetp3n0lGyhbJAA+zjevrOt85z6AMEACNwgQHgtajUYlUp0C2ZYAoTsCVxzJYcRgdlXF+WlJe3dXPFIaGRjDPseWYmDdu6rMLrvPfQFhYATeFCA8X5N0oQq5pS6N4BSoO6G4R/B0/zJFOf2blwVu3V0xB5+S29Q0/3Wva53qtg5el8Xs/e4LCAMi4LXMcwIE56GVMhu6zfFSqvV+DTf4zSrApv97o6DtRhDaJYCPjsV87dynqfxOnivZgdtiMvyykMDTA4TGriVr9XyHwlkoOtn84E1h3oA6UWJ9fdqq2oOyoVJnRuzBL6V+7UHQbbrGYB1sXZzCx8+6TyAMgIAbwikBAnNE5axSrW3VYBY51yq+XYBb2FSFOf2836Bq3AuTS/2zJLe8JnzqZVoem1x7EHGx5cnwaw0EIqaMvHxQ+5EoNh3lKe3e8PerAIXXREkue8Z7Aq6aJ7Lic8Wm3OVVGLWk676BUDkBNo2sVsF2HLJM4W/0W43HjlYj195dW0v6QmK9bFRvKb9/iiOCrVQ+x3I3xprqKMly776BUDGBmwQpzxtVzGhSNJwCTUjk8/n4IPlN6eQ3evZR+eCqJic4Adq4Kq8f1DZuvHFS3FEqgVcFCMlQDEdgejQvKbc9/xyn/mcHBDYWhC+IWNnBNPdqPD8eoN9fsVpS3FUaAdszt+OTWYW17v+1nqedrU+cj8wS6ff/FwfI7rqy3vT+Z/WLqqrUaYerV2fqZknLu01oX3z1JLmzFAJ/HaBAh+Y8gjePPKR7+6DBa9MOfd3nPFOBEo2RHWbiVucY5dxtv9WT5M5SCLwuYAAwNPeROAXKQ7ptcGrdTrjv+9kLECM7OAFaj+OhAW3lNeslyd25E7C53h8nCob9T++Ue0GD88fu42CgDaPz7vqoDt07nQ+RZOMyXhbz2eerSTpI0lcD0zmuYVl5bHMCdqyVUvdDO42zoyTr6hRmP9y8CvivdALXThQIC9PLS4fQIP+cP24ALfiRS0mytb0UheZnz5b06A2O6dnLn+/5XUB6Ng50iWAWQ4wOexzr17p1dWp7sTl0QiUEHh4gEEM4+jdb3ambanAKNEt0/f/vGiC77vzXcdzje38bkO7d1y8uT8wQwAnQDJAV/vVRvtQBwENWSIdbCiHwkkSB+E4h5YzOJjbIo4muH9+zE2XXirDJerxnAlKV6JHrF5cnpgjgk2MKxpqXqQMnn7ohVELA65EpyuyllXBYtxgooHWJxd//wUTZ9Zq/p/bXDX4m1WrmO9dNlPs3I8AAfDMca/3zssR285G1UuPmrAn8IlEY7pl16drNXOpIeih2E9qqha8kyq43/DUNj01M+4tNE+a5PxFgCa65IKSy+2nzpHkyJwK2n566icoOWIYa2ITUb817R3LK7NU1ErLvZ1PS/mVC2jwqsQm3uRRcOVF27WrbdgUIhRPYI1EQfKTExwiHGnAK1G/Np27G2yEh+z4mmDIAsFU1QnMCHMNtzs5LWKltB5PWzfln8+T1EpXYUDcATioQQyQTEv182vV0Siec4uM8dQDADECazGCIK43fSYlt5zppyfN0DgRunigENsIy5IAp0n5r351oygDg6gnZT10C+ElC2jwqYYo7TQpSB1D2HksonMDNEhXoxwovf2r2cUaSSjDt+RMT5dcW/pqGxyWm/a2mCfPcnzwqpgz8/OzQp7DtuTWFIQOAChriTROFAJOmvIn02QyOTZRfm/dtegzw+MS0/6tPcIWnzcxbegV+MlF+/yI9C8TQNwFXYsoo0Mewhh5Sp9K8j4DQjMCLEuXXsm+jPusGzxyktBs/e8S6iXL/JgLsvdmEovHF1xNleIjWXxvDzvXBqyQKwSm5FqzDfLEbuUPYM0ntnyi/7oht239dU8A2H5w6ALjPTFn4d3UCOAFandWiO1Ptv+y5KGK+L4eAfamnKDLbEBi6UxPOI/cn77sF2LGw/PtI1CrOgPzmH9H52xnQzv1hKz5l7G+kVaE9t6baf7l4WhZ4OhcCZyYOAryRcMgh1aoWToHSpCd1CWZ6AGzzvrbw5x3+HhxvO772hr/UNf/pdD6QVuTBP40FzjQRuEWizseGRRr/rJ5OXQs6LKvSdJ8ZbJJ3z3w6xcckKrPpjrmr60dMF4DrtQjgg2MtXHNvPjyxzXjzLKESAm9JFIYPV8KhaTFQSE3JxTx3SUm2SNlV552azm+Y/k+qeAbcSfj+9PB/J7aXN6ZngRhyIZA6GrQ1tl1yKUxP+WBKsifw42TtWje1Y+7q+af2i6r41FlyS6vCS0lKtaA59FnftBrI7OnbByhPr5sOObApqd/av0whswCnStqxX1TFp86m27QqPDhA3++blgWezomANzuljgi9jwCnQM3fQn2UkJBG4IkBiq3tWQDnkZBGIPXYrR14DTXY6NU3E9uJj81yAqAyCUpdE7LivGdlTNYpDoZJ1qHVzr0XkfSFROXW5gDgow2tDrZDq9xY/yexjodseCt1+cTt40Plig45X0TgyYmNyoLhWQAr4SEGTJPmUev2c+4jSm125E3ituOaK+SBqPhceBNlkzqYPOO2OsSwdcDbvxk+aYjwai/zVQMMQ1g4nlA7qAXlwynQAjA9fH1XSb9P7CQmnUXEp43+3KUHDjUmSTtrXqvuuFPl2caD9mqeBZ7MmYBd+6YKiI0KXS3nQraYN9yTtgh3zagfFjSgTW0P50myuWJCDAFm2ppxtGGrswL0uz0IEiolYOMkqQrPz39Z0sUqZbSsWKkW6Ya8NrmMa9PfPAjocybAnf+Dm2ae5+YSYK/NXCxLv/SGPRvuidDtD12aEj8WTcDHk04PEhS7Om3iZrVkgKm7k+3ghBBLwMsBqWvGTRSnHa1wVCq2Lh0bToDWY3phSe8O0uluRzuslzx3l0bgOUHCYqX5bwMbBHA+OU9p98bALk8HfI4Nf60JAvY2VkfrF7BXBerzZ66eNHeWSuDSY89oTd565j3jt+KhnAxIPWKDU6D2Wo1l8NDAGa55sv5LSfYWOBR5b6+2FseMxc3FbKZ/8Y7/Nwd2/t7btet0AlzXS+DFgYJjRenzz3bbWnvARnn+Nexd5M8PthroqVGbIsa9b7v1j8+N1fhaxo8L1uFDNp60GvWK7rJzFa9hznvLafrdjwZwFAoFVU4jcGdtL4KfbnhawMehPi7pgVhF66zSr5mok7wp02205uA9Lz9J5DSr43/G4LZmkZlfttTdtrNCNPn/3yVddn6SVXzLFGV51eipzf1GG5z8luM15m+PB8Bnj49O/WB8suVYSU+XdCcUYi+VzBLbYuzWqdatEz0b+cnO/8Xcq/3FG0i8mSlSkCZx2XXr31Y6GmeTUrVNgoL1TIBNtltWgGc0rEvbcoftGbIh+3jZkviAvrlKy5um/LbsN6+aAseUaqpNypITAfugn7xENPmsbR3bx0xTHfss4+iNf3vnJADkpXsCnv5ZJiQRv31Yktf3agiPTORlY0IECEBgSwI4ATqfic22vy9Rz6yit72/hQABvaUDYbO9dI/QS/eVjqlSGgwE2iGQatCpdCdA1o3WkdaVq3TgKfe8qZ0qJNYSCWw7smr2yQ6EzgLrs9SHjDZb2YJViSHCWYltMRAgAIELCAy5XXkN3m/jp3Skg326xTqfAIFNBHYZ7yPv/D0AABEtSURBVI5OGVWu8+wXJd18U+plXeAUqKz6Irf5E7hVYufnNlliuNH4qOo6ujPl3hMx+FOimHSTZ5tU9ZGoFAFb51mftfbGn9KODeIUqBt5JJXhEEg9llza3hrrPE/DWweuozNT7j1Z0hWHI1KUtAmBK0j6TodCaYG2G8unFjQtleoUqLbdyk3kjGcgME0g9XTN66cjy/jaJny9BHpaxzr2e5L2zJgLWcuIgEen3+hYQD0Q8PSULV3lHjivnHsNkb/SCAzBvsbdxjou5S2+ybPHS/IeCwIEViZgt5B2+dtE4FKfyf3YIBbLVhYjboTASgROStQ191oplX5u6upY3zy9+15JO/VTbFItnYB3px4u6Q+JjXOeYG70nY/CHJXpscEIm+Xswi29dZD/KAK1+tjYfgTIS5s2Ob2Rvov+3XsL7PrdFl8JEEgiYItU3+9BiN0ofDTmYZkJcq0KK0lIeBgCDQlEDKhzcgLkTtc6y052ojv2VeLzev9tGtYFj0FgLoGLj0eU9ri1ihBG35PbscGapyznCgBfQqAlAqlLat47lEvo+ljftJ71W/8rRq6rPfNAgEArBG4s6fM9DQJyOjY4hE1LrQgQkUJghkANm2r7ONY33flbJ1s3EyDQOoGuLVdNC7qvczg2mHpsyUcJCRCAwPm2QGbb+Dr/93mstq9jfRM+pVtWRf4LJrDdKO99bXJxA+jT2yBOgQoWXLKeFYFSnQC17a1v0snP+8x5k3RWwkVm2iewV0feq+Y1BH/Xx7FBnAK1L1ekMAwCqaa1b9Expj6P9U303T4dl5nkILAhgSGNiIfsvGRDQeAGCKxIoKR21OexPnf83uy434pcuQ0CvRAY0ppY6ptL6e5LexEwEq2KQAlOgPre83TmqMZLMpVelYBSmGYELjM+ktKHESGPlrs4Nljq2mWzGuUpCMQTyH0vTd/H+t4myf5ZCBAoksANO3Z36c5/8udjg202IJwCFSmSZDojAqmnadpyApTDC8zNMqonsgKBxgT6nkJr69hg6vnl9zUmyoMQqINAqj2NvwvGMKQlzGB0RAeB5QRqOzaYasHMxxgJEBgygZwsag5pE/OQZY6y90yglmODETbMcQrUszCSfG8EcvGpwbG+3kSAhIdMoPQRdy4KbMgyRNnLJdD3AJpjfeXKDjmvhIA70b+VdMbU5r3JJr4uPu1t8KEJ3gY9jZ+SzwMqqUeKAYF1CVj2U9pO0yW0vr31WddZ5+XkwXDduuN+CIQSsDONN0ryzv0UpdD0WTvTuEmDEqVuYnplgzR5BAI1EHh1YltvsonWbRxnZjVID2WokkBpDdSOSJoOOvzc6ZJ2qrImKRQEFhPYOWDW78jF0W/xSw7e+pq8YGxREL6AQO0ESjo2+IDEAYAHAS+vvUIpHwRmCKS+/bvdrLJ8xrG+GfD8C4FSCOwoyW/Y9nyV8pbd9Fnb3r7rBrCuFpA3L3vYIhoBAkMg8JiANuM27d37y8Ldxvbzm7b/lOess6y7rMMIEIBAAgF3sh8IUhpNGvWxkpyHecGzFT8IyJsHAc9jY9A8xHxXCQEfeX1+0D6f/13CpG99YV21SF8syTY/QQACywj4bdxv5U068dRnlo3o/zUwTz+S9A8j98o2oczbwzJp4LcSCFiGbU//KZJ+HNhO/mVO4UuYMZyTbb6CAARWJZDjmt7NAxVb6kCF5/sZIMK9W+43nVIYfe8ZwlvfVGVwCYEuCOTgrMMd/yR8jUFALzMzdLzddrw58P7qpNGNZxc+3VPba9vZ2FQxuYQABOYRyOXY4IN6UkI5KGTyMLxOuM86/xtJHOubpw35DgIDJND3FKC9DT5NUqpjkz6VKmnTiZcgA25jh0o6racB9y8lHSLpwgPUsxQZAlkT6HsTUF9WDEtQ3OSRAUaEDPTVxpZtAs5aKZI5CAyNQN/eBiMUHXHQYSIDecjAhyXtMzQlSnkhUDqBPr0NorzzUN7UA/XQVAZ85Hi/0pUg+YfAkAn0fWywqfLhOTouZKAfGfCenqdKsuEiAgQgUAGBvo8Nosz7UeZwh/uqMsCxvgoUPUWAwDICtrDX17nhVRUR99FpIQPdysAXJU3b9VimQ/gNAhAomEDfxwZR7t0qd3jDe5EMcKyvYEVO1iGQQmC70cNe6zu7pzPFi5QS39NhIQPtyoCP9R2Fv40U9cmzEKiDAMcG21W2dGbwzUkGONZXh96mFBAIJcCxQTqqnDoq8hIrjxzrC1WXRAaB+ghwbDBW6dKJwbNvGeBYX316mhJBoFUCHBuk4+q74yL9NBnkWF+rKpLIIVA/gdyPDdZfA5QwZwJ/yHQDLcf6cpYa8gaBggjkfGywIIxktUICuQ0AONZXoZBRJAjkQCDHY4M5cCEPwyWQywCAY33DlUFKDoFOCeR0bLDTgpMYBGYI5DAA4FjfTKXwLwQg0D6BHI4Ntl9KUoDAYgJ9DgC+i7e+xRXDLxCAQPsE+j422H4JSQECiwn0MQDgWN/i+uAXCECgBwJ9HRvsoagkCYFNBLocAHCsbxN2LiAAgRwJdH1sMEcG5Gk4BLoaAHCsbzgyRUkzI3AFSQ+Q9C+SPiTpJEmnSjov0zPAGFBJM6ACP/ghA2XIwDljXXyCpGNHzo1eJGl/Sbtl1oeQncIIXErSkyR9gU5eKMMylCH1RD0hA+fLgJdLPiPpMSOvhzsX1veQ3R4JXE7SKyX9jo6fjh8ZQAaQgeJl4AxJR0ryPiUCBOYSuKikI+j4i2/svAHxFowMIAPzZMADgSdKusjcHoAvB0vgWqPztN9gpE/njwwgA8hA9TLgZd0rD7a3o+CbEbjfaK3f52rnjRj5Di7IADKADNQnA6dJuutmPQH/DI7AwZK6OsaDEqlPiVCn1CkyUK4M+BTXgYPr9Sjwnwh4LYjGCwNkABlABoYrAz4t8DD6xGERuL8kVzwNHwbIADKADAxbBn7PcsBwBgDe8Mea/7AbPAqf+kcGkIFpGThd0t7D6QaHWVIf9fsmb/7MfCADyAAygAzMyIBPB3BEsOKxgc/5T4/6uIYHMoAMIAPIwEQGDq24/xt00WzhD+t+NPRJQ+cTWUAGkIFZGfBSwO6D7ikrLfwrePtn9gMZQAaQAWRgAxl4fqV94GCLZcc+vP0z2p8d7fM/MoEMIAOzMmCTwTgQqmi4cNgGI75ZAeB/lAIygAwgA8OVgUdX1P8NviifDxwAfE3SIZL2kbTd4MkCAAIQgEB/BKyDrYutk48P1POf7q9IpBxJ4PJBRn/OluRR4VaRmSMuCEAAAhAIIXBhSQdJOidgIGBDcbuG5IpIeiVgq3+pU3nu/G/daylIHAIQgAAEViFwm6BBwH6rJMY9eRM4KmAA8Ki8i0juIAABCEBgisBjA/T+C6bi47JQAh9KFASv+TPtX2jlk20IQGCQBLwc8PVE3f++QZKrrNDfTRQCby4hQAACEIBAWQSekKj7TyiruOR2HoHTEoXgGvMi5TsIQAACEMiawDUTdf/Psy4dmVuJgF09pmwC3H6lVLgJAhCAAARyIrBDou735m9C4QRSBwAWIgIEIAABCJRFIHUA4OOEhMIJ/DpxFMgSQOECQPYhAIFBEkhdAvjVIKlVVmg2AVZWoRQHAhCAwAoEUjcBfnOFNLglcwIfSJwBsHlJHykhQAACEIBAGQSss7+RqPuPKaOo5HIZgRcmCoE3ENq8JAECEIAABMogcHCA3j+ijKKSy2UE7hMgCN4McttlifAbBCAAAQhkQWBfSecG6H3HQyicwG6S/hAgDB4E2LwkywGFCwTZhwAEqiRg3ew3/4jO33Hg7bUSMTkuYAAwsSVg85LeXOIdptgIqERAKAYEIFAkAetg6+JDA9b8Jzrenx8pkgaZnkvAznymK5dreCADyAAygAwskoH95/YkfFkkAY8Sf8MggEEQMoAMIAPIwAYy8FNJ2xTZ05HphQSeu0GlLxoJ8j1vCcgAMoAMDEcG2P2/sBst94edJNmyEw0ZBsgAMoAMIAPzZMBv/zuW282R82UEHscAgAEQMoAMIAPIwAIZOGBZB8JvZRPYStInF1T8vNEg3/GWgAwgA8jAMGTAO/8vVHYXR+43InB5SfbzTKOGATKADCADyIBl4MeS9tio8+D3OgjYqp8N+9D4YYAMIAPIwLBl4CxJ16+ja6MUqxK4b5CFQJTHsJUH9U/9IwPlyoAt/t1z1U6D++oicA9Jv2MmgJkQZAAZQAYGJwNnSLpjXV0apVmXwC0lnULjH1zj562t3Lc26o66S5WBn0i63rqdBffXSeCykj7MIIBBADKADCAD1cvA2yRdus6ujFI1JeDjHw9iNqD6xp/65sDzvH0iA2XKgHf6371pB8FzwyBgF5BPluQpIho6DJABZAAZKFsGrMsPw3vrMDrwqFJeRNK9GAQwCEIGkAFkoFgZuLekraM6BeIZHgFG/2WP/qk/6g8ZGK4MDK/HosShBFKVR2hmiAwCEIDAgAigfwdU2TkWFQHMsVbIEwQgMAQC6N8h1HLGZUQAM64csgYBCFRNAP1bdfXmXzgEMP86IocQgECdBNC/ddZrMaVCAIupKjIKAQhURgD9W1mFllYcBLC0GiO/EIBALQTQv7XUZKHlQAALrTiyDQEIFE8A/Vt8FZZdAASw7Poj9xCAQLkE0L/l1l0VOT8n0QrYDlVQoBAQgAAEuiVwiUTde3a32SW1Ggn8KlEIr1EjFMoEAQhAoGUC10rUvb9oOX9EPwAC300UwkMGwIgiQgACEIgmcGii7j0xOkPENzwCH0gUwuMlXXh42CgxBCAAgcYErDO/kah7j2mcOg9CYEzgqEQh9CaWg6AJAQhAAAIrEzg4QO++aOXUuBECCwjcL0AQvZHwtgvi52sIQAACELiAwL6Szg3Qu/e9IEquINCMwO6S/hggjB4EPJblgGaVwFMQgED1BDzt7z1TEZ2/dfZu1ROjgJ0Q+FzAAGBynvXrkry55ZqSOCLYSfWRCAQgkCkB60Dv9n9iwJr/RMf68zOZlpdsFUjgcYEDgGkh5VqCAQyQAWQgWgYeU2A/Q5YzJbCLpDMZBNBZIwPIADKQvQxYV1tnEyAQRsA7SqNHqcQHU2QAGUAGYmXgyDCtT0QQGBPYg1kABkAMApEBZCBrGThdkjduEyAQTuBwGn/WjZ83qdg3KXjCszQZ8GZCAgRaIbC1pC8xCGAQgAwgA8hAdjLwRUnW0QQItEbgKpJOo/Fn1/hLe1Mhv7xdIwNxMnCGpL1b0/pEDIEpAveUdB6DAAYByAAygAz0LgPWxXeb0s9cQqB1AgfS8Htv+LxBxb1BwRKWJcqALf49vHVtTwIQmEPgwZJ+z0CAgQAygAwgA53LgN/8HzlHL/MVBDojcI+RaV8fPSlx9EyeqTdkABkoUQa8D4tp/866ORJaRmAvTgcwAGIQiAwgA53IgHf7ezM2AQLZELjI2JMVswG8UZX4RkWekdvcZeCskbZ/qqRtstH6ZAQCMwQuI+mFWA3s5E0gd4VF/uhUkYF0GbBt/xdg4W+mp+HfrAnYGcVjJX1WkneqoghggAwgA8jAajJgnWmXvgdJumTWmp7MQWADArtJ2l+SHQodK+nbkn4l6RwGBgyMkAFkYMAyYB1oXWidaN1oHWldaZ1JgAAEIAABCEAAAhCAAAQgAAEIQAACEIAABCAAAQhAAAIQgAAEIAABCEAAAhCAAAQgAAEIQAACEIAABCAAAQhAAAIQgAAEIAABCEAAAhCAAAQgAAEIQAACEIAABCAAAQhAAAIQgAAEIAABCEAAAhCAAAQgAAEIQAACEIAABCAAAQhAAAIQgAAEIAABCEAAAhCAAAQgAAEIQAACEIAABCAAAQhAAAIQgAAEIAABCEAAAp0T+P/aeGPUk/sOmwAAAABJRU5ErkJggg==;" vertex="1" parent="1">
          <mxGeometry x="591" y="260" width="64.5" height="64.5" as="geometry" />
        </mxCell>
        <mxCell id="TmeDc8ayh9Il0AQ-u9vA-2" value="" style="endArrow=classic;html=1;rounded=0;exitX=0.5;exitY=1;exitDx=0;exitDy=0;" edge="1" parent="1" source="TmeDc8ayh9Il0AQ-u9vA-1" target="4U0CMGnqYyfHWQzrbLEE-2">
          <mxGeometry width="50" height="50" relative="1" as="geometry">
            <mxPoint x="462.75" y="438" as="sourcePoint" />
            <mxPoint x="623.75" y="396" as="targetPoint" />
          </mxGeometry>
        </mxCell>
        <mxCell id="TmeDc8ayh9Il0AQ-u9vA-4" value="" style="shape=cross;whiteSpace=wrap;html=1;rotation=45;fillColor=#f8cecc;strokeColor=#b85450;" vertex="1" parent="1">
          <mxGeometry x="604" y="375" width="40" height="40" as="geometry" />
        </mxCell>
      </root>
    </mxGraphModel>
  </diagram>
</mxfile>
